solid OpenSCAD_Model
  facet normal 0 0 1
    outer loop
      vertex 9.2 9.7 10.7
      vertex 4 7.7 10.7
      vertex 9.2 7.7 10.7
    endloop
  endfacet
  facet normal 0 0 1
    outer loop
      vertex 4 7.7 10.7
      vertex -4 7.7 10.7
      vertex 4 6.7 10.7
    endloop
  endfacet
  facet normal 0 0 1
    outer loop
      vertex 9.2 9.7 10.7
      vertex -4 7.7 10.7
      vertex 4 7.7 10.7
    endloop
  endfacet
  facet normal -0 0 1
    outer loop
      vertex -12.2 9.7 10.7
      vertex -4 7.7 10.7
      vertex 9.2 9.7 10.7
    endloop
  endfacet
  facet normal 0 0 1
    outer loop
      vertex -10.2 7.7 10.7
      vertex -12.2 9.7 10.7
      vertex -10.2 -7.7 10.7
    endloop
  endfacet
  facet normal 0 0 1
    outer loop
      vertex -4 7.7 10.7
      vertex -12.2 9.7 10.7
      vertex -10.2 7.7 10.7
    endloop
  endfacet
  facet normal 0 0 1
    outer loop
      vertex 4 6.7 10.7
      vertex -4 7.7 10.7
      vertex -4 6.7 10.7
    endloop
  endfacet
  facet normal 0 0 1
    outer loop
      vertex 4 -6.7 10.7
      vertex -4 -6.7 10.7
      vertex 4 -7.7 10.7
    endloop
  endfacet
  facet normal -0 0 1
    outer loop
      vertex 4 -7.7 10.7
      vertex 9.2 -9.7 10.7
      vertex 9.2 -7.7 10.7
    endloop
  endfacet
  facet normal 0 0 1
    outer loop
      vertex -4 -7.7 10.7
      vertex 4 -7.7 10.7
      vertex -4 -6.7 10.7
    endloop
  endfacet
  facet normal 0 0 1
    outer loop
      vertex 4 -7.7 10.7
      vertex -4 -7.7 10.7
      vertex 9.2 -9.7 10.7
    endloop
  endfacet
  facet normal 0 0 1
    outer loop
      vertex -12.2 -9.7 10.7
      vertex -4 -7.7 10.7
      vertex -10.2 -7.7 10.7
    endloop
  endfacet
  facet normal 0 0 1
    outer loop
      vertex -4 -7.7 10.7
      vertex -12.2 -9.7 10.7
      vertex 9.2 -9.7 10.7
    endloop
  endfacet
  facet normal 0 0 1
    outer loop
      vertex -12.2 -9.7 10.7
      vertex -10.2 -7.7 10.7
      vertex -12.2 9.7 10.7
    endloop
  endfacet
  facet normal 0 0 1
    outer loop
      vertex 9.2 6.7 2.5
      vertex 7.5 0 2.5
      vertex 9.2 -6.7 2.5
    endloop
  endfacet
  facet normal 0 0 1
    outer loop
      vertex 9.2 6.7 2.5
      vertex 7.4687 0.637111 2.5
      vertex 7.5 0 2.5
    endloop
  endfacet
  facet normal 0 0 1
    outer loop
      vertex 9.2 6.7 2.5
      vertex 7.3751 1.26809 2.5
      vertex 7.4687 0.637111 2.5
    endloop
  endfacet
  facet normal 0 0 1
    outer loop
      vertex 9.2 6.7 2.5
      vertex 7.22011 1.88685 2.5
      vertex 7.3751 1.26809 2.5
    endloop
  endfacet
  facet normal 0 0 1
    outer loop
      vertex 9.2 6.7 2.5
      vertex 7.00522 2.48744 2.5
      vertex 7.22011 1.88685 2.5
    endloop
  endfacet
  facet normal 0 0 1
    outer loop
      vertex 9.2 6.7 2.5
      vertex 6.73249 3.06408 2.5
      vertex 7.00522 2.48744 2.5
    endloop
  endfacet
  facet normal 0 0 1
    outer loop
      vertex 9.2 6.7 2.5
      vertex 6.40455 3.61121 2.5
      vertex 6.73249 3.06408 2.5
    endloop
  endfacet
  facet normal 0 0 1
    outer loop
      vertex 9.2 6.7 2.5
      vertex 6.02457 4.12356 2.5
      vertex 6.40455 3.61121 2.5
    endloop
  endfacet
  facet normal 0 0 1
    outer loop
      vertex 9.2 6.7 2.5
      vertex 5.59619 4.59619 2.5
      vertex 6.02457 4.12356 2.5
    endloop
  endfacet
  facet normal 0 0 1
    outer loop
      vertex 9.2 6.7 2.5
      vertex 5.12356 5.02457 2.5
      vertex 5.59619 4.59619 2.5
    endloop
  endfacet
  facet normal 0 0 1
    outer loop
      vertex 9.2 6.7 2.5
      vertex 4.61121 5.40455 2.5
      vertex 5.12356 5.02457 2.5
    endloop
  endfacet
  facet normal 0 0 1
    outer loop
      vertex 9.2 6.7 2.5
      vertex 4.06408 5.73249 2.5
      vertex 4.61121 5.40455 2.5
    endloop
  endfacet
  facet normal 0 0 1
    outer loop
      vertex 9.2 6.7 2.5
      vertex 3.48744 6.00522 2.5
      vertex 4.06408 5.73249 2.5
    endloop
  endfacet
  facet normal 0 0 1
    outer loop
      vertex 9.2 6.7 2.5
      vertex 2.88685 6.22011 2.5
      vertex 3.48744 6.00522 2.5
    endloop
  endfacet
  facet normal 0 0 1
    outer loop
      vertex 9.2 6.7 2.5
      vertex 2.26809 6.3751 2.5
      vertex 2.88685 6.22011 2.5
    endloop
  endfacet
  facet normal 0 0 1
    outer loop
      vertex 9.2 6.7 2.5
      vertex 1.63711 6.4687 2.5
      vertex 2.26809 6.3751 2.5
    endloop
  endfacet
  facet normal 0 0 1
    outer loop
      vertex 9.2 6.7 2.5
      vertex 1 6.5 2.5
      vertex 1.63711 6.4687 2.5
    endloop
  endfacet
  facet normal 0 0 1
    outer loop
      vertex -5.4687 0.637111 2.5
      vertex -9.2 6.7 2.5
      vertex -5.5 0 2.5
    endloop
  endfacet
  facet normal 0 0 1
    outer loop
      vertex -5.3751 1.26809 2.5
      vertex -9.2 6.7 2.5
      vertex -5.4687 0.637111 2.5
    endloop
  endfacet
  facet normal 0 0 1
    outer loop
      vertex -5.22011 1.88685 2.5
      vertex -9.2 6.7 2.5
      vertex -5.3751 1.26809 2.5
    endloop
  endfacet
  facet normal 0 0 1
    outer loop
      vertex -5.00522 2.48744 2.5
      vertex -9.2 6.7 2.5
      vertex -5.22011 1.88685 2.5
    endloop
  endfacet
  facet normal 0 0 1
    outer loop
      vertex -4.73249 3.06408 2.5
      vertex -9.2 6.7 2.5
      vertex -5.00522 2.48744 2.5
    endloop
  endfacet
  facet normal 0 0 1
    outer loop
      vertex -4.40455 3.61121 2.5
      vertex -9.2 6.7 2.5
      vertex -4.73249 3.06408 2.5
    endloop
  endfacet
  facet normal 0 0 1
    outer loop
      vertex -4.02457 4.12356 2.5
      vertex -9.2 6.7 2.5
      vertex -4.40455 3.61121 2.5
    endloop
  endfacet
  facet normal 0 0 1
    outer loop
      vertex -3.59619 4.59619 2.5
      vertex -9.2 6.7 2.5
      vertex -4.02457 4.12356 2.5
    endloop
  endfacet
  facet normal 0 0 1
    outer loop
      vertex -3.12356 5.02457 2.5
      vertex -9.2 6.7 2.5
      vertex -3.59619 4.59619 2.5
    endloop
  endfacet
  facet normal 0 0 1
    outer loop
      vertex -2.61121 5.40455 2.5
      vertex -9.2 6.7 2.5
      vertex -3.12356 5.02457 2.5
    endloop
  endfacet
  facet normal 0 0 1
    outer loop
      vertex -2.06408 5.73249 2.5
      vertex -9.2 6.7 2.5
      vertex -2.61121 5.40455 2.5
    endloop
  endfacet
  facet normal 0 0 1
    outer loop
      vertex -1.48744 6.00522 2.5
      vertex -9.2 6.7 2.5
      vertex -2.06408 5.73249 2.5
    endloop
  endfacet
  facet normal 0 0 1
    outer loop
      vertex -0.88685 6.22011 2.5
      vertex -9.2 6.7 2.5
      vertex -1.48744 6.00522 2.5
    endloop
  endfacet
  facet normal 0 0 1
    outer loop
      vertex -0.268086 6.3751 2.5
      vertex -9.2 6.7 2.5
      vertex -0.88685 6.22011 2.5
    endloop
  endfacet
  facet normal 0 0 1
    outer loop
      vertex 0.362888 6.4687 2.5
      vertex -9.2 6.7 2.5
      vertex -0.268086 6.3751 2.5
    endloop
  endfacet
  facet normal 0 0 1
    outer loop
      vertex 1 6.5 2.5
      vertex -9.2 6.7 2.5
      vertex 0.362888 6.4687 2.5
    endloop
  endfacet
  facet normal -0 0 1
    outer loop
      vertex -9.2 6.7 2.5
      vertex 1 6.5 2.5
      vertex 9.2 6.7 2.5
    endloop
  endfacet
  facet normal 0 0 1
    outer loop
      vertex 9.2 6.7 2.5
      vertex 19 14.5 2.5
      vertex 9.2 9.7 2.5
    endloop
  endfacet
  facet normal -0 0 1
    outer loop
      vertex -19 14.5 2.5
      vertex 9.2 9.7 2.5
      vertex 19 14.5 2.5
    endloop
  endfacet
  facet normal 0 0 1
    outer loop
      vertex -12.2 9.7 2.5
      vertex -19 14.5 2.5
      vertex -12.2 -9.7 2.5
    endloop
  endfacet
  facet normal 0 0 1
    outer loop
      vertex 9.2 9.7 2.5
      vertex -19 14.5 2.5
      vertex -12.2 9.7 2.5
    endloop
  endfacet
  facet normal 0 0 1
    outer loop
      vertex 19 14.5 2.5
      vertex 9.2 6.7 2.5
      vertex 19 -14.5 2.5
    endloop
  endfacet
  facet normal -0 0 1
    outer loop
      vertex 9.2 -6.7 2.5
      vertex 19 -14.5 2.5
      vertex 9.2 6.7 2.5
    endloop
  endfacet
  facet normal -0 0 1
    outer loop
      vertex 9.2 -9.7 2.5
      vertex 19 -14.5 2.5
      vertex 9.2 -6.7 2.5
    endloop
  endfacet
  facet normal 0 0 1
    outer loop
      vertex -19 -14.5 2.5
      vertex 9.2 -9.7 2.5
      vertex -12.2 -9.7 2.5
    endloop
  endfacet
  facet normal 0 0 1
    outer loop
      vertex 9.2 -9.7 2.5
      vertex -19 -14.5 2.5
      vertex 19 -14.5 2.5
    endloop
  endfacet
  facet normal 0 0 1
    outer loop
      vertex -19 -14.5 2.5
      vertex -12.2 -9.7 2.5
      vertex -19 14.5 2.5
    endloop
  endfacet
  facet normal -0 0 1
    outer loop
      vertex 7.4687 -0.637111 2.5
      vertex 9.2 -6.7 2.5
      vertex 7.5 0 2.5
    endloop
  endfacet
  facet normal -0 0 1
    outer loop
      vertex 7.3751 -1.26809 2.5
      vertex 9.2 -6.7 2.5
      vertex 7.4687 -0.637111 2.5
    endloop
  endfacet
  facet normal -0 0 1
    outer loop
      vertex 7.22011 -1.88685 2.5
      vertex 9.2 -6.7 2.5
      vertex 7.3751 -1.26809 2.5
    endloop
  endfacet
  facet normal -0 0 1
    outer loop
      vertex 7.00522 -2.48744 2.5
      vertex 9.2 -6.7 2.5
      vertex 7.22011 -1.88685 2.5
    endloop
  endfacet
  facet normal -0 0 1
    outer loop
      vertex 6.73249 -3.06408 2.5
      vertex 9.2 -6.7 2.5
      vertex 7.00522 -2.48744 2.5
    endloop
  endfacet
  facet normal -0 0 1
    outer loop
      vertex 6.40455 -3.61121 2.5
      vertex 9.2 -6.7 2.5
      vertex 6.73249 -3.06408 2.5
    endloop
  endfacet
  facet normal -0 0 1
    outer loop
      vertex 6.02457 -4.12356 2.5
      vertex 9.2 -6.7 2.5
      vertex 6.40455 -3.61121 2.5
    endloop
  endfacet
  facet normal -0 0 1
    outer loop
      vertex 5.59619 -4.59619 2.5
      vertex 9.2 -6.7 2.5
      vertex 6.02457 -4.12356 2.5
    endloop
  endfacet
  facet normal -0 0 1
    outer loop
      vertex 5.12356 -5.02457 2.5
      vertex 9.2 -6.7 2.5
      vertex 5.59619 -4.59619 2.5
    endloop
  endfacet
  facet normal -0 0 1
    outer loop
      vertex 4.61121 -5.40455 2.5
      vertex 9.2 -6.7 2.5
      vertex 5.12356 -5.02457 2.5
    endloop
  endfacet
  facet normal -0 0 1
    outer loop
      vertex 4.06408 -5.73249 2.5
      vertex 9.2 -6.7 2.5
      vertex 4.61121 -5.40455 2.5
    endloop
  endfacet
  facet normal -0 0 1
    outer loop
      vertex 3.48744 -6.00522 2.5
      vertex 9.2 -6.7 2.5
      vertex 4.06408 -5.73249 2.5
    endloop
  endfacet
  facet normal -0 0 1
    outer loop
      vertex 2.88685 -6.22011 2.5
      vertex 9.2 -6.7 2.5
      vertex 3.48744 -6.00522 2.5
    endloop
  endfacet
  facet normal -0 0 1
    outer loop
      vertex 2.26809 -6.3751 2.5
      vertex 9.2 -6.7 2.5
      vertex 2.88685 -6.22011 2.5
    endloop
  endfacet
  facet normal -0 0 1
    outer loop
      vertex 1.63711 -6.4687 2.5
      vertex 9.2 -6.7 2.5
      vertex 2.26809 -6.3751 2.5
    endloop
  endfacet
  facet normal -0 0 1
    outer loop
      vertex 1 -6.5 2.5
      vertex 9.2 -6.7 2.5
      vertex 1.63711 -6.4687 2.5
    endloop
  endfacet
  facet normal 0 0 1
    outer loop
      vertex -9.2 -6.7 2.5
      vertex -5.5 0 2.5
      vertex -9.2 6.7 2.5
    endloop
  endfacet
  facet normal 0 0 1
    outer loop
      vertex -5.5 0 2.5
      vertex -9.2 -6.7 2.5
      vertex -5.4687 -0.637111 2.5
    endloop
  endfacet
  facet normal 0 0 1
    outer loop
      vertex -5.4687 -0.637111 2.5
      vertex -9.2 -6.7 2.5
      vertex -5.3751 -1.26809 2.5
    endloop
  endfacet
  facet normal 0 0 1
    outer loop
      vertex -5.3751 -1.26809 2.5
      vertex -9.2 -6.7 2.5
      vertex -5.22011 -1.88685 2.5
    endloop
  endfacet
  facet normal 0 0 1
    outer loop
      vertex 1 -6.5 2.5
      vertex -9.2 -6.7 2.5
      vertex 9.2 -6.7 2.5
    endloop
  endfacet
  facet normal 0 0 1
    outer loop
      vertex 0.362888 -6.4687 2.5
      vertex -9.2 -6.7 2.5
      vertex 1 -6.5 2.5
    endloop
  endfacet
  facet normal 0 0 1
    outer loop
      vertex -0.268086 -6.3751 2.5
      vertex -9.2 -6.7 2.5
      vertex 0.362888 -6.4687 2.5
    endloop
  endfacet
  facet normal 0 0 1
    outer loop
      vertex -0.88685 -6.22011 2.5
      vertex -9.2 -6.7 2.5
      vertex -0.268086 -6.3751 2.5
    endloop
  endfacet
  facet normal 0 0 1
    outer loop
      vertex -1.48744 -6.00522 2.5
      vertex -9.2 -6.7 2.5
      vertex -0.88685 -6.22011 2.5
    endloop
  endfacet
  facet normal 0 0 1
    outer loop
      vertex -2.06408 -5.73249 2.5
      vertex -9.2 -6.7 2.5
      vertex -1.48744 -6.00522 2.5
    endloop
  endfacet
  facet normal 0 0 1
    outer loop
      vertex -2.61121 -5.40455 2.5
      vertex -9.2 -6.7 2.5
      vertex -2.06408 -5.73249 2.5
    endloop
  endfacet
  facet normal 0 0 1
    outer loop
      vertex -3.12356 -5.02457 2.5
      vertex -9.2 -6.7 2.5
      vertex -2.61121 -5.40455 2.5
    endloop
  endfacet
  facet normal 0 0 1
    outer loop
      vertex -3.59619 -4.59619 2.5
      vertex -9.2 -6.7 2.5
      vertex -3.12356 -5.02457 2.5
    endloop
  endfacet
  facet normal 0 0 1
    outer loop
      vertex -4.02457 -4.12356 2.5
      vertex -9.2 -6.7 2.5
      vertex -3.59619 -4.59619 2.5
    endloop
  endfacet
  facet normal 0 0 1
    outer loop
      vertex -4.40455 -3.61121 2.5
      vertex -9.2 -6.7 2.5
      vertex -4.02457 -4.12356 2.5
    endloop
  endfacet
  facet normal 0 0 1
    outer loop
      vertex -4.73249 -3.06408 2.5
      vertex -9.2 -6.7 2.5
      vertex -4.40455 -3.61121 2.5
    endloop
  endfacet
  facet normal 0 0 1
    outer loop
      vertex -5.00522 -2.48744 2.5
      vertex -9.2 -6.7 2.5
      vertex -4.73249 -3.06408 2.5
    endloop
  endfacet
  facet normal 0 0 1
    outer loop
      vertex -5.22011 -1.88685 2.5
      vertex -9.2 -6.7 2.5
      vertex -5.00522 -2.48744 2.5
    endloop
  endfacet
  facet normal -1 0 0
    outer loop
      vertex -12.2 -9.7 2.5
      vertex -12.2 9.7 10.7
      vertex -12.2 9.7 2.5
    endloop
  endfacet
  facet normal -1 -0 0
    outer loop
      vertex -12.2 9.7 10.7
      vertex -12.2 -9.7 2.5
      vertex -12.2 -9.7 10.7
    endloop
  endfacet
  facet normal 0 1 -0
    outer loop
      vertex 9.2 9.7 2.5
      vertex -12.2 9.7 10.7
      vertex 9.2 9.7 10.7
    endloop
  endfacet
  facet normal 0 1 0
    outer loop
      vertex -12.2 9.7 10.7
      vertex 9.2 9.7 2.5
      vertex -12.2 9.7 2.5
    endloop
  endfacet
  facet normal 0 -1 0
    outer loop
      vertex -12.2 -9.7 2.5
      vertex 9.2 -9.7 10.7
      vertex -12.2 -9.7 10.7
    endloop
  endfacet
  facet normal 0 -1 -0
    outer loop
      vertex 9.2 -9.7 10.7
      vertex -12.2 -9.7 2.5
      vertex 9.2 -9.7 2.5
    endloop
  endfacet
  facet normal 0 0 1
    outer loop
      vertex 9.2 7.7 8.5
      vertex -9.2 6.7 8.5
      vertex 9.2 6.7 8.5
    endloop
  endfacet
  facet normal 0 0 1
    outer loop
      vertex -9.2 6.7 8.5
      vertex -10.2 7.7 8.5
      vertex -9.2 -6.7 8.5
    endloop
  endfacet
  facet normal -0 0 1
    outer loop
      vertex -10.2 7.7 8.5
      vertex -9.2 6.7 8.5
      vertex 9.2 7.7 8.5
    endloop
  endfacet
  facet normal -0 0 1
    outer loop
      vertex -9.2 -6.7 8.5
      vertex 9.2 -7.7 8.5
      vertex 9.2 -6.7 8.5
    endloop
  endfacet
  facet normal 0 0 1
    outer loop
      vertex -9.2 -6.7 8.5
      vertex -10.2 -7.7 8.5
      vertex 9.2 -7.7 8.5
    endloop
  endfacet
  facet normal 0 0 1
    outer loop
      vertex -10.2 -7.7 8.5
      vertex -9.2 -6.7 8.5
      vertex -10.2 7.7 8.5
    endloop
  endfacet
  facet normal 1 -0 0
    outer loop
      vertex -10.2 -7.7 10.7
      vertex -10.2 7.7 8.5
      vertex -10.2 7.7 10.7
    endloop
  endfacet
  facet normal 1 0 0
    outer loop
      vertex -10.2 7.7 8.5
      vertex -10.2 -7.7 10.7
      vertex -10.2 -7.7 8.5
    endloop
  endfacet
  facet normal 0 -1 0
    outer loop
      vertex -10.2 7.7 10.7
      vertex -4 7.7 9.5
      vertex -4 7.7 10.7
    endloop
  endfacet
  facet normal 0 -1 0
    outer loop
      vertex 9.2 7.7 8.5
      vertex -4 7.7 9.5
      vertex -10.2 7.7 8.5
    endloop
  endfacet
  facet normal 0 -1 0
    outer loop
      vertex -10.2 7.7 8.5
      vertex -4 7.7 9.5
      vertex -10.2 7.7 10.7
    endloop
  endfacet
  facet normal 0 -1 0
    outer loop
      vertex 4 7.7 9.5
      vertex 9.2 7.7 10.7
      vertex 4 7.7 10.7
    endloop
  endfacet
  facet normal 0 -1 0
    outer loop
      vertex 4 7.7 9.5
      vertex 9.2 7.7 8.5
      vertex 9.2 7.7 10.7
    endloop
  endfacet
  facet normal 0 -1 0
    outer loop
      vertex -4 7.7 9.5
      vertex 9.2 7.7 8.5
      vertex 4 7.7 9.5
    endloop
  endfacet
  facet normal 0 1 0
    outer loop
      vertex 9.2 -7.7 10.7
      vertex 4 -7.7 9.5
      vertex 4 -7.7 10.7
    endloop
  endfacet
  facet normal 0 1 0
    outer loop
      vertex 4 -7.7 9.5
      vertex 9.2 -7.7 8.5
      vertex -4 -7.7 9.5
    endloop
  endfacet
  facet normal 0 1 -0
    outer loop
      vertex 9.2 -7.7 8.5
      vertex 4 -7.7 9.5
      vertex 9.2 -7.7 10.7
    endloop
  endfacet
  facet normal 0 1 -0
    outer loop
      vertex -4 -7.7 9.5
      vertex -10.2 -7.7 10.7
      vertex -4 -7.7 10.7
    endloop
  endfacet
  facet normal 0 1 0
    outer loop
      vertex -4 -7.7 9.5
      vertex -10.2 -7.7 8.5
      vertex -10.2 -7.7 10.7
    endloop
  endfacet
  facet normal 0 1 0
    outer loop
      vertex -10.2 -7.7 8.5
      vertex -4 -7.7 9.5
      vertex 9.2 -7.7 8.5
    endloop
  endfacet
  facet normal 1 0 0
    outer loop
      vertex 9.2 7.7 8.5
      vertex 9.2 9.7 10.7
      vertex 9.2 7.7 10.7
    endloop
  endfacet
  facet normal 1 0 0
    outer loop
      vertex 9.2 9.7 10.7
      vertex 9.2 7.7 8.5
      vertex 9.2 9.7 2.5
    endloop
  endfacet
  facet normal 1 0 0
    outer loop
      vertex 9.2 6.7 2.5
      vertex 9.2 7.7 8.5
      vertex 9.2 6.7 8.5
    endloop
  endfacet
  facet normal 1 0 0
    outer loop
      vertex 9.2 7.7 8.5
      vertex 9.2 6.7 2.5
      vertex 9.2 9.7 2.5
    endloop
  endfacet
  facet normal 1 0 0
    outer loop
      vertex 9.2 -7.7 10.7
      vertex 9.2 -9.7 10.7
      vertex 9.2 -7.7 8.5
    endloop
  endfacet
  facet normal 1 -0 0
    outer loop
      vertex 9.2 -7.7 8.5
      vertex 9.2 -6.7 2.5
      vertex 9.2 -6.7 8.5
    endloop
  endfacet
  facet normal 1 0 0
    outer loop
      vertex 9.2 -9.7 2.5
      vertex 9.2 -7.7 8.5
      vertex 9.2 -9.7 10.7
    endloop
  endfacet
  facet normal 1 0 0
    outer loop
      vertex 9.2 -7.7 8.5
      vertex 9.2 -9.7 2.5
      vertex 9.2 -6.7 2.5
    endloop
  endfacet
  facet normal 1 -0 0
    outer loop
      vertex -9.2 -6.7 8.5
      vertex -9.2 6.7 2.5
      vertex -9.2 6.7 8.5
    endloop
  endfacet
  facet normal 1 0 0
    outer loop
      vertex -9.2 6.7 2.5
      vertex -9.2 -6.7 8.5
      vertex -9.2 -6.7 2.5
    endloop
  endfacet
  facet normal 0 -1 0
    outer loop
      vertex -9.2 6.7 2.5
      vertex 9.2 6.7 8.5
      vertex -9.2 6.7 8.5
    endloop
  endfacet
  facet normal 0 -1 -0
    outer loop
      vertex 9.2 6.7 8.5
      vertex -9.2 6.7 2.5
      vertex 9.2 6.7 2.5
    endloop
  endfacet
  facet normal 0 1 -0
    outer loop
      vertex 9.2 -6.7 2.5
      vertex -9.2 -6.7 8.5
      vertex 9.2 -6.7 8.5
    endloop
  endfacet
  facet normal 0 1 0
    outer loop
      vertex -9.2 -6.7 8.5
      vertex 9.2 -6.7 2.5
      vertex -9.2 -6.7 2.5
    endloop
  endfacet
  facet normal 1 -0 0
    outer loop
      vertex 4 -7.7 10.7
      vertex 4 -6.7 9.5
      vertex 4 -6.7 10.7
    endloop
  endfacet
  facet normal 1 0 0
    outer loop
      vertex 4 -6.7 9.5
      vertex 4 -7.7 10.7
      vertex 4 -7.7 9.5
    endloop
  endfacet
  facet normal 0 0 -1
    outer loop
      vertex -4 -7.7 9.5
      vertex 4 -6.7 9.5
      vertex 4 -7.7 9.5
    endloop
  endfacet
  facet normal -0 0 -1
    outer loop
      vertex 4 -6.7 9.5
      vertex -4 -7.7 9.5
      vertex -4 -6.7 9.5
    endloop
  endfacet
  facet normal -1 0 0
    outer loop
      vertex -4 -7.7 9.5
      vertex -4 -6.7 10.7
      vertex -4 -6.7 9.5
    endloop
  endfacet
  facet normal -1 -0 0
    outer loop
      vertex -4 -6.7 10.7
      vertex -4 -7.7 9.5
      vertex -4 -7.7 10.7
    endloop
  endfacet
  facet normal 0 1 -0
    outer loop
      vertex 4 -6.7 9.5
      vertex -4 -6.7 10.7
      vertex 4 -6.7 10.7
    endloop
  endfacet
  facet normal 0 1 0
    outer loop
      vertex -4 -6.7 10.7
      vertex 4 -6.7 9.5
      vertex -4 -6.7 9.5
    endloop
  endfacet
  facet normal 1 -0 0
    outer loop
      vertex 4 6.7 10.7
      vertex 4 7.7 9.5
      vertex 4 7.7 10.7
    endloop
  endfacet
  facet normal 1 0 0
    outer loop
      vertex 4 7.7 9.5
      vertex 4 6.7 10.7
      vertex 4 6.7 9.5
    endloop
  endfacet
  facet normal 0 0 -1
    outer loop
      vertex -4 6.7 9.5
      vertex 4 7.7 9.5
      vertex 4 6.7 9.5
    endloop
  endfacet
  facet normal -0 0 -1
    outer loop
      vertex 4 7.7 9.5
      vertex -4 6.7 9.5
      vertex -4 7.7 9.5
    endloop
  endfacet
  facet normal -1 0 0
    outer loop
      vertex -4 6.7 9.5
      vertex -4 7.7 10.7
      vertex -4 7.7 9.5
    endloop
  endfacet
  facet normal -1 -0 0
    outer loop
      vertex -4 7.7 10.7
      vertex -4 6.7 9.5
      vertex -4 6.7 10.7
    endloop
  endfacet
  facet normal 0 -1 0
    outer loop
      vertex -4 6.7 9.5
      vertex 4 6.7 10.7
      vertex -4 6.7 10.7
    endloop
  endfacet
  facet normal 0 -1 -0
    outer loop
      vertex 4 6.7 10.7
      vertex -4 6.7 9.5
      vertex 4 6.7 9.5
    endloop
  endfacet
  facet normal 1 -0 0
    outer loop
      vertex 19 -14.5 2.5
      vertex 19 14.5 0
      vertex 19 14.5 2.5
    endloop
  endfacet
  facet normal 1 0 0
    outer loop
      vertex 19 14.5 0
      vertex 19 -14.5 2.5
      vertex 19 -14.5 0
    endloop
  endfacet
  facet normal 0 0 -1
    outer loop
      vertex 19 -14.5 0
      vertex 7.5 0 0
      vertex 19 14.5 0
    endloop
  endfacet
  facet normal 0 0 -1
    outer loop
      vertex 19 -14.5 0
      vertex 7.4687 -0.637111 0
      vertex 7.5 0 0
    endloop
  endfacet
  facet normal 0 0 -1
    outer loop
      vertex 19 -14.5 0
      vertex 7.3751 -1.26809 0
      vertex 7.4687 -0.637111 0
    endloop
  endfacet
  facet normal 0 0 -1
    outer loop
      vertex 19 -14.5 0
      vertex 7.22011 -1.88685 0
      vertex 7.3751 -1.26809 0
    endloop
  endfacet
  facet normal 0 0 -1
    outer loop
      vertex 19 -14.5 0
      vertex 7.00522 -2.48744 0
      vertex 7.22011 -1.88685 0
    endloop
  endfacet
  facet normal 0 0 -1
    outer loop
      vertex 19 -14.5 0
      vertex 6.73249 -3.06408 0
      vertex 7.00522 -2.48744 0
    endloop
  endfacet
  facet normal 0 0 -1
    outer loop
      vertex 19 -14.5 0
      vertex 6.40455 -3.61121 0
      vertex 6.73249 -3.06408 0
    endloop
  endfacet
  facet normal 0 0 -1
    outer loop
      vertex 19 -14.5 0
      vertex 6.02457 -4.12356 0
      vertex 6.40455 -3.61121 0
    endloop
  endfacet
  facet normal 0 0 -1
    outer loop
      vertex 19 -14.5 0
      vertex 5.59619 -4.59619 0
      vertex 6.02457 -4.12356 0
    endloop
  endfacet
  facet normal 0 0 -1
    outer loop
      vertex 19 -14.5 0
      vertex 5.12356 -5.02457 0
      vertex 5.59619 -4.59619 0
    endloop
  endfacet
  facet normal 0 0 -1
    outer loop
      vertex 19 -14.5 0
      vertex 4.61121 -5.40455 0
      vertex 5.12356 -5.02457 0
    endloop
  endfacet
  facet normal 0 0 -1
    outer loop
      vertex 19 -14.5 0
      vertex 4.06408 -5.73249 0
      vertex 4.61121 -5.40455 0
    endloop
  endfacet
  facet normal 0 0 -1
    outer loop
      vertex 19 -14.5 0
      vertex 3.48744 -6.00522 0
      vertex 4.06408 -5.73249 0
    endloop
  endfacet
  facet normal 0 0 -1
    outer loop
      vertex 19 -14.5 0
      vertex 2.88685 -6.22011 0
      vertex 3.48744 -6.00522 0
    endloop
  endfacet
  facet normal 0 0 -1
    outer loop
      vertex 19 -14.5 0
      vertex 2.26809 -6.3751 0
      vertex 2.88685 -6.22011 0
    endloop
  endfacet
  facet normal 0 0 -1
    outer loop
      vertex 19 -14.5 0
      vertex 1.63711 -6.4687 0
      vertex 2.26809 -6.3751 0
    endloop
  endfacet
  facet normal 0 0 -1
    outer loop
      vertex 19 -14.5 0
      vertex 1 -6.5 0
      vertex 1.63711 -6.4687 0
    endloop
  endfacet
  facet normal 0 0 -1
    outer loop
      vertex -19 -14.5 0
      vertex 1 -6.5 0
      vertex 19 -14.5 0
    endloop
  endfacet
  facet normal -0 0 -1
    outer loop
      vertex 1 -6.5 0
      vertex -19 -14.5 0
      vertex 0.362888 -6.4687 0
    endloop
  endfacet
  facet normal -0 0 -1
    outer loop
      vertex 0.362888 -6.4687 0
      vertex -19 -14.5 0
      vertex -0.268086 -6.3751 0
    endloop
  endfacet
  facet normal -0 0 -1
    outer loop
      vertex -0.268086 -6.3751 0
      vertex -19 -14.5 0
      vertex -0.88685 -6.22011 0
    endloop
  endfacet
  facet normal -0 0 -1
    outer loop
      vertex -5.4687 -0.637111 0
      vertex -19 -14.5 0
      vertex -5.5 0 0
    endloop
  endfacet
  facet normal -0 0 -1
    outer loop
      vertex -5.3751 -1.26809 0
      vertex -19 -14.5 0
      vertex -5.4687 -0.637111 0
    endloop
  endfacet
  facet normal -0 0 -1
    outer loop
      vertex -5.22011 -1.88685 0
      vertex -19 -14.5 0
      vertex -5.3751 -1.26809 0
    endloop
  endfacet
  facet normal -0 0 -1
    outer loop
      vertex -5.00522 -2.48744 0
      vertex -19 -14.5 0
      vertex -5.22011 -1.88685 0
    endloop
  endfacet
  facet normal -0 0 -1
    outer loop
      vertex -4.73249 -3.06408 0
      vertex -19 -14.5 0
      vertex -5.00522 -2.48744 0
    endloop
  endfacet
  facet normal -0 0 -1
    outer loop
      vertex -4.40455 -3.61121 0
      vertex -19 -14.5 0
      vertex -4.73249 -3.06408 0
    endloop
  endfacet
  facet normal -0 0 -1
    outer loop
      vertex -4.02457 -4.12356 0
      vertex -19 -14.5 0
      vertex -4.40455 -3.61121 0
    endloop
  endfacet
  facet normal -0 0 -1
    outer loop
      vertex -3.59619 -4.59619 0
      vertex -19 -14.5 0
      vertex -4.02457 -4.12356 0
    endloop
  endfacet
  facet normal -0 0 -1
    outer loop
      vertex -3.12356 -5.02457 0
      vertex -19 -14.5 0
      vertex -3.59619 -4.59619 0
    endloop
  endfacet
  facet normal -0 0 -1
    outer loop
      vertex -2.61121 -5.40455 0
      vertex -19 -14.5 0
      vertex -3.12356 -5.02457 0
    endloop
  endfacet
  facet normal -0 0 -1
    outer loop
      vertex -2.06408 -5.73249 0
      vertex -19 -14.5 0
      vertex -2.61121 -5.40455 0
    endloop
  endfacet
  facet normal -0 0 -1
    outer loop
      vertex -1.48744 -6.00522 0
      vertex -19 -14.5 0
      vertex -2.06408 -5.73249 0
    endloop
  endfacet
  facet normal -0 0 -1
    outer loop
      vertex -0.88685 -6.22011 0
      vertex -19 -14.5 0
      vertex -1.48744 -6.00522 0
    endloop
  endfacet
  facet normal 0 0 -1
    outer loop
      vertex 7.4687 0.637111 0
      vertex 19 14.5 0
      vertex 7.5 0 0
    endloop
  endfacet
  facet normal 0 0 -1
    outer loop
      vertex 7.3751 1.26809 0
      vertex 19 14.5 0
      vertex 7.4687 0.637111 0
    endloop
  endfacet
  facet normal 0 0 -1
    outer loop
      vertex 7.22011 1.88685 0
      vertex 19 14.5 0
      vertex 7.3751 1.26809 0
    endloop
  endfacet
  facet normal 0 0 -1
    outer loop
      vertex 7.00522 2.48744 0
      vertex 19 14.5 0
      vertex 7.22011 1.88685 0
    endloop
  endfacet
  facet normal 0 0 -1
    outer loop
      vertex 6.73249 3.06408 0
      vertex 19 14.5 0
      vertex 7.00522 2.48744 0
    endloop
  endfacet
  facet normal 0 0 -1
    outer loop
      vertex 6.40455 3.61121 0
      vertex 19 14.5 0
      vertex 6.73249 3.06408 0
    endloop
  endfacet
  facet normal 0 0 -1
    outer loop
      vertex 6.02457 4.12356 0
      vertex 19 14.5 0
      vertex 6.40455 3.61121 0
    endloop
  endfacet
  facet normal 0 0 -1
    outer loop
      vertex 5.59619 4.59619 0
      vertex 19 14.5 0
      vertex 6.02457 4.12356 0
    endloop
  endfacet
  facet normal 0 0 -1
    outer loop
      vertex 5.12356 5.02457 0
      vertex 19 14.5 0
      vertex 5.59619 4.59619 0
    endloop
  endfacet
  facet normal 0 0 -1
    outer loop
      vertex 4.61121 5.40455 0
      vertex 19 14.5 0
      vertex 5.12356 5.02457 0
    endloop
  endfacet
  facet normal 0 0 -1
    outer loop
      vertex 4.06408 5.73249 0
      vertex 19 14.5 0
      vertex 4.61121 5.40455 0
    endloop
  endfacet
  facet normal 0 0 -1
    outer loop
      vertex 3.48744 6.00522 0
      vertex 19 14.5 0
      vertex 4.06408 5.73249 0
    endloop
  endfacet
  facet normal 0 0 -1
    outer loop
      vertex 2.88685 6.22011 0
      vertex 19 14.5 0
      vertex 3.48744 6.00522 0
    endloop
  endfacet
  facet normal 0 0 -1
    outer loop
      vertex 2.26809 6.3751 0
      vertex 19 14.5 0
      vertex 2.88685 6.22011 0
    endloop
  endfacet
  facet normal 0 0 -1
    outer loop
      vertex 1.63711 6.4687 0
      vertex 19 14.5 0
      vertex 2.26809 6.3751 0
    endloop
  endfacet
  facet normal 0 0 -1
    outer loop
      vertex 1 6.5 0
      vertex 19 14.5 0
      vertex 1.63711 6.4687 0
    endloop
  endfacet
  facet normal 0 0 -1
    outer loop
      vertex -19 14.5 0
      vertex 1 6.5 0
      vertex 0.362888 6.4687 0
    endloop
  endfacet
  facet normal 0 0 -1
    outer loop
      vertex -19 14.5 0
      vertex 0.362888 6.4687 0
      vertex -0.268086 6.3751 0
    endloop
  endfacet
  facet normal 0 0 -1
    outer loop
      vertex -19 14.5 0
      vertex -0.268086 6.3751 0
      vertex -0.88685 6.22011 0
    endloop
  endfacet
  facet normal 0 0 -1
    outer loop
      vertex -19 14.5 0
      vertex -0.88685 6.22011 0
      vertex -1.48744 6.00522 0
    endloop
  endfacet
  facet normal 0 0 -1
    outer loop
      vertex -19 14.5 0
      vertex -5.5 0 0
      vertex -19 -14.5 0
    endloop
  endfacet
  facet normal 0 0 -1
    outer loop
      vertex -5.5 0 0
      vertex -19 14.5 0
      vertex -5.4687 0.637111 0
    endloop
  endfacet
  facet normal 0 0 -1
    outer loop
      vertex -5.4687 0.637111 0
      vertex -19 14.5 0
      vertex -5.3751 1.26809 0
    endloop
  endfacet
  facet normal 0 0 -1
    outer loop
      vertex -5.3751 1.26809 0
      vertex -19 14.5 0
      vertex -5.22011 1.88685 0
    endloop
  endfacet
  facet normal 0 0 -1
    outer loop
      vertex -5.22011 1.88685 0
      vertex -19 14.5 0
      vertex -5.00522 2.48744 0
    endloop
  endfacet
  facet normal 0 0 -1
    outer loop
      vertex -5.00522 2.48744 0
      vertex -19 14.5 0
      vertex -4.73249 3.06408 0
    endloop
  endfacet
  facet normal 0 0 -1
    outer loop
      vertex -4.73249 3.06408 0
      vertex -19 14.5 0
      vertex -4.40455 3.61121 0
    endloop
  endfacet
  facet normal 0 0 -1
    outer loop
      vertex 1 6.5 0
      vertex -19 14.5 0
      vertex 19 14.5 0
    endloop
  endfacet
  facet normal 0 0 -1
    outer loop
      vertex -2.06408 5.73249 0
      vertex -19 14.5 0
      vertex -1.48744 6.00522 0
    endloop
  endfacet
  facet normal 0 0 -1
    outer loop
      vertex -2.61121 5.40455 0
      vertex -19 14.5 0
      vertex -2.06408 5.73249 0
    endloop
  endfacet
  facet normal 0 0 -1
    outer loop
      vertex -3.12356 5.02457 0
      vertex -19 14.5 0
      vertex -2.61121 5.40455 0
    endloop
  endfacet
  facet normal 0 0 -1
    outer loop
      vertex -3.59619 4.59619 0
      vertex -19 14.5 0
      vertex -3.12356 5.02457 0
    endloop
  endfacet
  facet normal 0 0 -1
    outer loop
      vertex -4.02457 4.12356 0
      vertex -19 14.5 0
      vertex -3.59619 4.59619 0
    endloop
  endfacet
  facet normal 0 0 -1
    outer loop
      vertex -4.40455 3.61121 0
      vertex -19 14.5 0
      vertex -4.02457 4.12356 0
    endloop
  endfacet
  facet normal -1 0 0
    outer loop
      vertex -19 -14.5 0
      vertex -19 14.5 2.5
      vertex -19 14.5 0
    endloop
  endfacet
  facet normal -1 -0 0
    outer loop
      vertex -19 14.5 2.5
      vertex -19 -14.5 0
      vertex -19 -14.5 2.5
    endloop
  endfacet
  facet normal 0 1 -0
    outer loop
      vertex 19 14.5 0
      vertex -19 14.5 2.5
      vertex 19 14.5 2.5
    endloop
  endfacet
  facet normal 0 1 0
    outer loop
      vertex -19 14.5 2.5
      vertex 19 14.5 0
      vertex -19 14.5 0
    endloop
  endfacet
  facet normal 0 -1 0
    outer loop
      vertex -19 -14.5 0
      vertex 19 -14.5 2.5
      vertex -19 -14.5 2.5
    endloop
  endfacet
  facet normal 0 -1 -0
    outer loop
      vertex 19 -14.5 2.5
      vertex -19 -14.5 0
      vertex 19 -14.5 0
    endloop
  endfacet
  facet normal -0.989176 -0.146735 -2.04866e-18
    outer loop
      vertex 7.4687 0.637111 0
      vertex 7.3751 1.26809 2.5
      vertex 7.3751 1.26809 0
    endloop
  endfacet
  facet normal -0.989176 -0.146735 -2.04866e-18
    outer loop
      vertex 7.3751 1.26809 2.5
      vertex 7.4687 0.637111 0
      vertex 7.4687 0.637111 2.5
    endloop
  endfacet
  facet normal -0.998795 -0.0490688 -5.70066e-19
    outer loop
      vertex 7.5 0 0
      vertex 7.4687 0.637111 2.5
      vertex 7.4687 0.637111 0
    endloop
  endfacet
  facet normal -0.998795 -0.0490688 -5.70066e-19
    outer loop
      vertex 7.4687 0.637111 2.5
      vertex 7.5 0 0
      vertex 7.5 0 2.5
    endloop
  endfacet
  facet normal -0.970032 -0.242978 6.61077e-19
    outer loop
      vertex 7.3751 1.26809 0
      vertex 7.22011 1.88685 2.5
      vertex 7.22011 1.88685 0
    endloop
  endfacet
  facet normal -0.970032 -0.242978 6.61077e-19
    outer loop
      vertex 7.22011 1.88685 2.5
      vertex 7.3751 1.26809 0
      vertex 7.3751 1.26809 2.5
    endloop
  endfacet
  facet normal 0.514106 0.857727 -0
    outer loop
      vertex -2.06408 -5.73249 0
      vertex -2.61121 -5.40455 2.5
      vertex -2.06408 -5.73249 2.5
    endloop
  endfacet
  facet normal 0.514106 0.857727 0
    outer loop
      vertex -2.61121 -5.40455 2.5
      vertex -2.06408 -5.73249 0
      vertex -2.61121 -5.40455 0
    endloop
  endfacet
  facet normal 0.514106 -0.857727 0
    outer loop
      vertex -2.61121 5.40455 0
      vertex -2.06408 5.73249 2.5
      vertex -2.61121 5.40455 2.5
    endloop
  endfacet
  facet normal 0.514106 -0.857727 0
    outer loop
      vertex -2.06408 5.73249 2.5
      vertex -2.61121 5.40455 0
      vertex -2.06408 5.73249 0
    endloop
  endfacet
  facet normal 0.941546 -0.336884 2.2172e-18
    outer loop
      vertex -5.22011 1.88685 2.5
      vertex -5.00522 2.48744 0
      vertex -5.00522 2.48744 2.5
    endloop
  endfacet
  facet normal 0.941546 -0.336884 2.2172e-18
    outer loop
      vertex -5.00522 2.48744 0
      vertex -5.22011 1.88685 2.5
      vertex -5.22011 1.88685 0
    endloop
  endfacet
  facet normal -0.336884 -0.941546 0
    outer loop
      vertex 2.88685 6.22011 0
      vertex 3.48744 6.00522 2.5
      vertex 2.88685 6.22011 2.5
    endloop
  endfacet
  facet normal -0.336884 -0.941546 -0
    outer loop
      vertex 3.48744 6.00522 2.5
      vertex 2.88685 6.22011 0
      vertex 3.48744 6.00522 0
    endloop
  endfacet
  facet normal 0.941546 0.336884 -2.2172e-18
    outer loop
      vertex -5.00522 -2.48744 2.5
      vertex -5.22011 -1.88685 0
      vertex -5.22011 -1.88685 2.5
    endloop
  endfacet
  facet normal 0.941546 0.336884 -2.2172e-18
    outer loop
      vertex -5.22011 -1.88685 0
      vertex -5.00522 -2.48744 2.5
      vertex -5.00522 -2.48744 0
    endloop
  endfacet
  facet normal 0.146736 -0.989176 0
    outer loop
      vertex -0.268086 6.3751 0
      vertex 0.362888 6.4687 2.5
      vertex -0.268086 6.3751 2.5
    endloop
  endfacet
  facet normal 0.146736 -0.989176 0
    outer loop
      vertex 0.362888 6.4687 2.5
      vertex -0.268086 6.3751 0
      vertex 0.362888 6.4687 0
    endloop
  endfacet
  facet normal -0.146735 0.989176 0
    outer loop
      vertex 2.26809 -6.3751 0
      vertex 1.63711 -6.4687 2.5
      vertex 2.26809 -6.3751 2.5
    endloop
  endfacet
  facet normal -0.146735 0.989176 0
    outer loop
      vertex 1.63711 -6.4687 2.5
      vertex 2.26809 -6.3751 0
      vertex 1.63711 -6.4687 0
    endloop
  endfacet
  facet normal 0.740941 -0.67157 -3.02104e-18
    outer loop
      vertex -4.02457 4.12356 2.5
      vertex -3.59619 4.59619 0
      vertex -3.59619 4.59619 2.5
    endloop
  endfacet
  facet normal 0.740941 -0.67157 -3.02104e-18
    outer loop
      vertex -3.59619 4.59619 0
      vertex -4.02457 4.12356 2.5
      vertex -4.02457 4.12356 0
    endloop
  endfacet
  facet normal -0.427555 0.90399 0
    outer loop
      vertex 4.06408 -5.73249 0
      vertex 3.48744 -6.00522 2.5
      vertex 4.06408 -5.73249 2.5
    endloop
  endfacet
  facet normal -0.427555 0.90399 0
    outer loop
      vertex 3.48744 -6.00522 2.5
      vertex 4.06408 -5.73249 0
      vertex 3.48744 -6.00522 0
    endloop
  endfacet
  facet normal -0.803211 0.595695 -4.78643e-18
    outer loop
      vertex 6.02457 -4.12356 0
      vertex 6.40455 -3.61121 2.5
      vertex 6.40455 -3.61121 0
    endloop
  endfacet
  facet normal -0.803211 0.595695 -4.78643e-18
    outer loop
      vertex 6.40455 -3.61121 2.5
      vertex 6.02457 -4.12356 0
      vertex 6.02457 -4.12356 2.5
    endloop
  endfacet
  facet normal -0.336884 0.941546 0
    outer loop
      vertex 3.48744 -6.00522 0
      vertex 2.88685 -6.22011 2.5
      vertex 3.48744 -6.00522 2.5
    endloop
  endfacet
  facet normal -0.336884 0.941546 0
    outer loop
      vertex 2.88685 -6.22011 2.5
      vertex 3.48744 -6.00522 0
      vertex 2.88685 -6.22011 0
    endloop
  endfacet
  facet normal -0.989176 0.146735 2.04866e-18
    outer loop
      vertex 7.3751 -1.26809 0
      vertex 7.4687 -0.637111 2.5
      vertex 7.4687 -0.637111 0
    endloop
  endfacet
  facet normal -0.989176 0.146735 2.04866e-18
    outer loop
      vertex 7.4687 -0.637111 2.5
      vertex 7.3751 -1.26809 0
      vertex 7.3751 -1.26809 2.5
    endloop
  endfacet
  facet normal -0.67157 0.740941 0
    outer loop
      vertex 5.59619 -4.59619 0
      vertex 5.12356 -5.02457 2.5
      vertex 5.59619 -4.59619 2.5
    endloop
  endfacet
  facet normal -0.67157 0.740941 0
    outer loop
      vertex 5.12356 -5.02457 2.5
      vertex 5.59619 -4.59619 0
      vertex 5.12356 -5.02457 0
    endloop
  endfacet
  facet normal -0.0490689 -0.998795 0
    outer loop
      vertex 1 6.5 0
      vertex 1.63711 6.4687 2.5
      vertex 1 6.5 2.5
    endloop
  endfacet
  facet normal -0.0490689 -0.998795 -0
    outer loop
      vertex 1.63711 6.4687 2.5
      vertex 1 6.5 0
      vertex 1.63711 6.4687 0
    endloop
  endfacet
  facet normal -0.427555 -0.90399 0
    outer loop
      vertex 3.48744 6.00522 0
      vertex 4.06408 5.73249 2.5
      vertex 3.48744 6.00522 2.5
    endloop
  endfacet
  facet normal -0.427555 -0.90399 -0
    outer loop
      vertex 4.06408 5.73249 2.5
      vertex 3.48744 6.00522 0
      vertex 4.06408 5.73249 0
    endloop
  endfacet
  facet normal 0.427555 -0.90399 0
    outer loop
      vertex -2.06408 5.73249 0
      vertex -1.48744 6.00522 2.5
      vertex -2.06408 5.73249 2.5
    endloop
  endfacet
  facet normal 0.427555 -0.90399 0
    outer loop
      vertex -1.48744 6.00522 2.5
      vertex -2.06408 5.73249 0
      vertex -1.48744 6.00522 0
    endloop
  endfacet
  facet normal 0.857727 0.514106 2.06029e-18
    outer loop
      vertex -4.40455 -3.61121 2.5
      vertex -4.73249 -3.06408 0
      vertex -4.73249 -3.06408 2.5
    endloop
  endfacet
  facet normal 0.857727 0.514106 2.06029e-18
    outer loop
      vertex -4.73249 -3.06408 0
      vertex -4.40455 -3.61121 2.5
      vertex -4.40455 -3.61121 0
    endloop
  endfacet
  facet normal 0.242977 0.970032 -0
    outer loop
      vertex -0.268086 -6.3751 0
      vertex -0.88685 -6.22011 2.5
      vertex -0.268086 -6.3751 2.5
    endloop
  endfacet
  facet normal 0.242977 0.970032 0
    outer loop
      vertex -0.88685 -6.22011 2.5
      vertex -0.268086 -6.3751 0
      vertex -0.88685 -6.22011 0
    endloop
  endfacet
  facet normal -0.740941 0.67157 -3.02104e-18
    outer loop
      vertex 5.59619 -4.59619 0
      vertex 6.02457 -4.12356 2.5
      vertex 6.02457 -4.12356 0
    endloop
  endfacet
  facet normal -0.740941 0.67157 -3.02104e-18
    outer loop
      vertex 6.02457 -4.12356 2.5
      vertex 5.59619 -4.59619 0
      vertex 5.59619 -4.59619 2.5
    endloop
  endfacet
  facet normal 0.970032 0.242978 6.61077e-19
    outer loop
      vertex -5.22011 -1.88685 2.5
      vertex -5.3751 -1.26809 0
      vertex -5.3751 -1.26809 2.5
    endloop
  endfacet
  facet normal 0.970032 0.242978 6.61077e-19
    outer loop
      vertex -5.3751 -1.26809 0
      vertex -5.22011 -1.88685 2.5
      vertex -5.22011 -1.88685 0
    endloop
  endfacet
  facet normal 0.67157 0.740941 -0
    outer loop
      vertex -3.12356 -5.02457 0
      vertex -3.59619 -4.59619 2.5
      vertex -3.12356 -5.02457 2.5
    endloop
  endfacet
  facet normal 0.67157 0.740941 0
    outer loop
      vertex -3.59619 -4.59619 2.5
      vertex -3.12356 -5.02457 0
      vertex -3.59619 -4.59619 0
    endloop
  endfacet
  facet normal -0.970032 0.242978 -6.61077e-19
    outer loop
      vertex 7.22011 -1.88685 0
      vertex 7.3751 -1.26809 2.5
      vertex 7.3751 -1.26809 0
    endloop
  endfacet
  facet normal -0.970032 0.242978 -6.61077e-19
    outer loop
      vertex 7.3751 -1.26809 2.5
      vertex 7.22011 -1.88685 0
      vertex 7.22011 -1.88685 2.5
    endloop
  endfacet
  facet normal 0.336884 -0.941546 0
    outer loop
      vertex -1.48744 6.00522 0
      vertex -0.88685 6.22011 2.5
      vertex -1.48744 6.00522 2.5
    endloop
  endfacet
  facet normal 0.336884 -0.941546 0
    outer loop
      vertex -0.88685 6.22011 2.5
      vertex -1.48744 6.00522 0
      vertex -0.88685 6.22011 0
    endloop
  endfacet
  facet normal 0.595695 -0.803211 0
    outer loop
      vertex -3.12356 5.02457 0
      vertex -2.61121 5.40455 2.5
      vertex -3.12356 5.02457 2.5
    endloop
  endfacet
  facet normal 0.595695 -0.803211 0
    outer loop
      vertex -2.61121 5.40455 2.5
      vertex -3.12356 5.02457 0
      vertex -2.61121 5.40455 0
    endloop
  endfacet
  facet normal -0.242978 0.970032 0
    outer loop
      vertex 2.88685 -6.22011 0
      vertex 2.26809 -6.3751 2.5
      vertex 2.88685 -6.22011 2.5
    endloop
  endfacet
  facet normal -0.242978 0.970032 0
    outer loop
      vertex 2.26809 -6.3751 2.5
      vertex 2.88685 -6.22011 0
      vertex 2.26809 -6.3751 0
    endloop
  endfacet
  facet normal 0.242977 -0.970032 0
    outer loop
      vertex -0.88685 6.22011 0
      vertex -0.268086 6.3751 2.5
      vertex -0.88685 6.22011 2.5
    endloop
  endfacet
  facet normal 0.242977 -0.970032 0
    outer loop
      vertex -0.268086 6.3751 2.5
      vertex -0.88685 6.22011 0
      vertex -0.268086 6.3751 0
    endloop
  endfacet
  facet normal -0.803211 -0.595695 4.78643e-18
    outer loop
      vertex 6.40455 3.61121 0
      vertex 6.02457 4.12356 2.5
      vertex 6.02457 4.12356 0
    endloop
  endfacet
  facet normal -0.803211 -0.595695 4.78643e-18
    outer loop
      vertex 6.02457 4.12356 2.5
      vertex 6.40455 3.61121 0
      vertex 6.40455 3.61121 2.5
    endloop
  endfacet
  facet normal 0.857727 -0.514106 -2.06029e-18
    outer loop
      vertex -4.73249 3.06408 2.5
      vertex -4.40455 3.61121 0
      vertex -4.40455 3.61121 2.5
    endloop
  endfacet
  facet normal 0.857727 -0.514106 -2.06029e-18
    outer loop
      vertex -4.40455 3.61121 0
      vertex -4.73249 3.06408 2.5
      vertex -4.73249 3.06408 0
    endloop
  endfacet
  facet normal -0.146735 -0.989176 0
    outer loop
      vertex 1.63711 6.4687 0
      vertex 2.26809 6.3751 2.5
      vertex 1.63711 6.4687 2.5
    endloop
  endfacet
  facet normal -0.146735 -0.989176 -0
    outer loop
      vertex 2.26809 6.3751 2.5
      vertex 1.63711 6.4687 0
      vertex 2.26809 6.3751 0
    endloop
  endfacet
  facet normal -0.998795 0.0490688 5.70066e-19
    outer loop
      vertex 7.4687 -0.637111 0
      vertex 7.5 0 2.5
      vertex 7.5 0 0
    endloop
  endfacet
  facet normal -0.998795 0.0490688 5.70066e-19
    outer loop
      vertex 7.5 0 2.5
      vertex 7.4687 -0.637111 0
      vertex 7.4687 -0.637111 2.5
    endloop
  endfacet
  facet normal -0.90399 0.427555 5.13657e-18
    outer loop
      vertex 6.73249 -3.06408 0
      vertex 7.00522 -2.48744 2.5
      vertex 7.00522 -2.48744 0
    endloop
  endfacet
  facet normal -0.90399 0.427555 5.13657e-18
    outer loop
      vertex 7.00522 -2.48744 2.5
      vertex 6.73249 -3.06408 0
      vertex 6.73249 -3.06408 2.5
    endloop
  endfacet
  facet normal -0.242978 -0.970032 0
    outer loop
      vertex 2.26809 6.3751 0
      vertex 2.88685 6.22011 2.5
      vertex 2.26809 6.3751 2.5
    endloop
  endfacet
  facet normal -0.242978 -0.970032 -0
    outer loop
      vertex 2.88685 6.22011 2.5
      vertex 2.26809 6.3751 0
      vertex 2.88685 6.22011 0
    endloop
  endfacet
  facet normal -0.514106 -0.857727 0
    outer loop
      vertex 4.06408 5.73249 0
      vertex 4.61121 5.40455 2.5
      vertex 4.06408 5.73249 2.5
    endloop
  endfacet
  facet normal -0.514106 -0.857727 -0
    outer loop
      vertex 4.61121 5.40455 2.5
      vertex 4.06408 5.73249 0
      vertex 4.61121 5.40455 0
    endloop
  endfacet
  facet normal -0.595695 -0.803211 0
    outer loop
      vertex 4.61121 5.40455 0
      vertex 5.12356 5.02457 2.5
      vertex 4.61121 5.40455 2.5
    endloop
  endfacet
  facet normal -0.595695 -0.803211 -0
    outer loop
      vertex 5.12356 5.02457 2.5
      vertex 4.61121 5.40455 0
      vertex 5.12356 5.02457 0
    endloop
  endfacet
  facet normal -0.0490689 0.998795 0
    outer loop
      vertex 1.63711 -6.4687 0
      vertex 1 -6.5 2.5
      vertex 1.63711 -6.4687 2.5
    endloop
  endfacet
  facet normal -0.0490689 0.998795 0
    outer loop
      vertex 1 -6.5 2.5
      vertex 1.63711 -6.4687 0
      vertex 1 -6.5 0
    endloop
  endfacet
  facet normal -0.941546 -0.336884 -2.2172e-18
    outer loop
      vertex 7.22011 1.88685 0
      vertex 7.00522 2.48744 2.5
      vertex 7.00522 2.48744 0
    endloop
  endfacet
  facet normal -0.941546 -0.336884 -2.2172e-18
    outer loop
      vertex 7.00522 2.48744 2.5
      vertex 7.22011 1.88685 0
      vertex 7.22011 1.88685 2.5
    endloop
  endfacet
  facet normal -0.857727 0.514106 -2.06029e-18
    outer loop
      vertex 6.40455 -3.61121 0
      vertex 6.73249 -3.06408 2.5
      vertex 6.73249 -3.06408 0
    endloop
  endfacet
  facet normal -0.857727 0.514106 -2.06029e-18
    outer loop
      vertex 6.73249 -3.06408 2.5
      vertex 6.40455 -3.61121 0
      vertex 6.40455 -3.61121 2.5
    endloop
  endfacet
  facet normal 0.998795 -0.0490688 5.70066e-19
    outer loop
      vertex -5.5 0 2.5
      vertex -5.4687 0.637111 0
      vertex -5.4687 0.637111 2.5
    endloop
  endfacet
  facet normal 0.998795 -0.0490688 5.70066e-19
    outer loop
      vertex -5.4687 0.637111 0
      vertex -5.5 0 2.5
      vertex -5.5 0 0
    endloop
  endfacet
  facet normal -0.941546 0.336884 2.2172e-18
    outer loop
      vertex 7.00522 -2.48744 0
      vertex 7.22011 -1.88685 2.5
      vertex 7.22011 -1.88685 0
    endloop
  endfacet
  facet normal -0.941546 0.336884 2.2172e-18
    outer loop
      vertex 7.22011 -1.88685 2.5
      vertex 7.00522 -2.48744 0
      vertex 7.00522 -2.48744 2.5
    endloop
  endfacet
  facet normal -0.740941 -0.67157 3.02104e-18
    outer loop
      vertex 6.02457 4.12356 0
      vertex 5.59619 4.59619 2.5
      vertex 5.59619 4.59619 0
    endloop
  endfacet
  facet normal -0.740941 -0.67157 3.02104e-18
    outer loop
      vertex 5.59619 4.59619 2.5
      vertex 6.02457 4.12356 0
      vertex 6.02457 4.12356 2.5
    endloop
  endfacet
  facet normal -0.90399 -0.427555 -5.13657e-18
    outer loop
      vertex 7.00522 2.48744 0
      vertex 6.73249 3.06408 2.5
      vertex 6.73249 3.06408 0
    endloop
  endfacet
  facet normal -0.90399 -0.427555 -5.13657e-18
    outer loop
      vertex 6.73249 3.06408 2.5
      vertex 7.00522 2.48744 0
      vertex 7.00522 2.48744 2.5
    endloop
  endfacet
  facet normal -0.595695 0.803211 0
    outer loop
      vertex 5.12356 -5.02457 0
      vertex 4.61121 -5.40455 2.5
      vertex 5.12356 -5.02457 2.5
    endloop
  endfacet
  facet normal -0.595695 0.803211 0
    outer loop
      vertex 4.61121 -5.40455 2.5
      vertex 5.12356 -5.02457 0
      vertex 4.61121 -5.40455 0
    endloop
  endfacet
  facet normal -0.857727 -0.514106 2.06029e-18
    outer loop
      vertex 6.73249 3.06408 0
      vertex 6.40455 3.61121 2.5
      vertex 6.40455 3.61121 0
    endloop
  endfacet
  facet normal -0.857727 -0.514106 2.06029e-18
    outer loop
      vertex 6.40455 3.61121 2.5
      vertex 6.73249 3.06408 0
      vertex 6.73249 3.06408 2.5
    endloop
  endfacet
  facet normal 0.67157 -0.740941 0
    outer loop
      vertex -3.59619 4.59619 0
      vertex -3.12356 5.02457 2.5
      vertex -3.59619 4.59619 2.5
    endloop
  endfacet
  facet normal 0.67157 -0.740941 0
    outer loop
      vertex -3.12356 5.02457 2.5
      vertex -3.59619 4.59619 0
      vertex -3.12356 5.02457 0
    endloop
  endfacet
  facet normal 0.90399 -0.427555 5.13657e-18
    outer loop
      vertex -5.00522 2.48744 2.5
      vertex -4.73249 3.06408 0
      vertex -4.73249 3.06408 2.5
    endloop
  endfacet
  facet normal 0.90399 -0.427555 5.13657e-18
    outer loop
      vertex -4.73249 3.06408 0
      vertex -5.00522 2.48744 2.5
      vertex -5.00522 2.48744 0
    endloop
  endfacet
  facet normal -0.67157 -0.740941 0
    outer loop
      vertex 5.12356 5.02457 0
      vertex 5.59619 4.59619 2.5
      vertex 5.12356 5.02457 2.5
    endloop
  endfacet
  facet normal -0.67157 -0.740941 -0
    outer loop
      vertex 5.59619 4.59619 2.5
      vertex 5.12356 5.02457 0
      vertex 5.59619 4.59619 0
    endloop
  endfacet
  facet normal 0.0490688 -0.998795 0
    outer loop
      vertex 0.362888 6.4687 0
      vertex 1 6.5 2.5
      vertex 0.362888 6.4687 2.5
    endloop
  endfacet
  facet normal 0.0490688 -0.998795 0
    outer loop
      vertex 1 6.5 2.5
      vertex 0.362888 6.4687 0
      vertex 1 6.5 0
    endloop
  endfacet
  facet normal 0.740941 0.67157 3.02104e-18
    outer loop
      vertex -3.59619 -4.59619 2.5
      vertex -4.02457 -4.12356 0
      vertex -4.02457 -4.12356 2.5
    endloop
  endfacet
  facet normal 0.740941 0.67157 3.02104e-18
    outer loop
      vertex -4.02457 -4.12356 0
      vertex -3.59619 -4.59619 2.5
      vertex -3.59619 -4.59619 0
    endloop
  endfacet
  facet normal 0.595695 0.803211 -0
    outer loop
      vertex -2.61121 -5.40455 0
      vertex -3.12356 -5.02457 2.5
      vertex -2.61121 -5.40455 2.5
    endloop
  endfacet
  facet normal 0.595695 0.803211 0
    outer loop
      vertex -3.12356 -5.02457 2.5
      vertex -2.61121 -5.40455 0
      vertex -3.12356 -5.02457 0
    endloop
  endfacet
  facet normal 0.989176 0.146735 -2.04866e-18
    outer loop
      vertex -5.3751 -1.26809 2.5
      vertex -5.4687 -0.637111 0
      vertex -5.4687 -0.637111 2.5
    endloop
  endfacet
  facet normal 0.989176 0.146735 -2.04866e-18
    outer loop
      vertex -5.4687 -0.637111 0
      vertex -5.3751 -1.26809 2.5
      vertex -5.3751 -1.26809 0
    endloop
  endfacet
  facet normal 0.803211 0.595695 4.78643e-18
    outer loop
      vertex -4.02457 -4.12356 2.5
      vertex -4.40455 -3.61121 0
      vertex -4.40455 -3.61121 2.5
    endloop
  endfacet
  facet normal 0.803211 0.595695 4.78643e-18
    outer loop
      vertex -4.40455 -3.61121 0
      vertex -4.02457 -4.12356 2.5
      vertex -4.02457 -4.12356 0
    endloop
  endfacet
  facet normal 0.998795 0.0490688 -5.70066e-19
    outer loop
      vertex -5.4687 -0.637111 2.5
      vertex -5.5 0 0
      vertex -5.5 0 2.5
    endloop
  endfacet
  facet normal 0.998795 0.0490688 -5.70066e-19
    outer loop
      vertex -5.5 0 0
      vertex -5.4687 -0.637111 2.5
      vertex -5.4687 -0.637111 0
    endloop
  endfacet
  facet normal 0.970032 -0.242978 -6.61077e-19
    outer loop
      vertex -5.3751 1.26809 2.5
      vertex -5.22011 1.88685 0
      vertex -5.22011 1.88685 2.5
    endloop
  endfacet
  facet normal 0.970032 -0.242978 -6.61077e-19
    outer loop
      vertex -5.22011 1.88685 0
      vertex -5.3751 1.26809 2.5
      vertex -5.3751 1.26809 0
    endloop
  endfacet
  facet normal 0.803211 -0.595695 -4.78643e-18
    outer loop
      vertex -4.40455 3.61121 2.5
      vertex -4.02457 4.12356 0
      vertex -4.02457 4.12356 2.5
    endloop
  endfacet
  facet normal 0.803211 -0.595695 -4.78643e-18
    outer loop
      vertex -4.02457 4.12356 0
      vertex -4.40455 3.61121 2.5
      vertex -4.40455 3.61121 0
    endloop
  endfacet
  facet normal -0.514106 0.857727 0
    outer loop
      vertex 4.61121 -5.40455 0
      vertex 4.06408 -5.73249 2.5
      vertex 4.61121 -5.40455 2.5
    endloop
  endfacet
  facet normal -0.514106 0.857727 0
    outer loop
      vertex 4.06408 -5.73249 2.5
      vertex 4.61121 -5.40455 0
      vertex 4.06408 -5.73249 0
    endloop
  endfacet
  facet normal 0.427555 0.90399 -0
    outer loop
      vertex -1.48744 -6.00522 0
      vertex -2.06408 -5.73249 2.5
      vertex -1.48744 -6.00522 2.5
    endloop
  endfacet
  facet normal 0.427555 0.90399 0
    outer loop
      vertex -2.06408 -5.73249 2.5
      vertex -1.48744 -6.00522 0
      vertex -2.06408 -5.73249 0
    endloop
  endfacet
  facet normal 0.0490688 0.998795 -0
    outer loop
      vertex 1 -6.5 0
      vertex 0.362888 -6.4687 2.5
      vertex 1 -6.5 2.5
    endloop
  endfacet
  facet normal 0.0490688 0.998795 0
    outer loop
      vertex 0.362888 -6.4687 2.5
      vertex 1 -6.5 0
      vertex 0.362888 -6.4687 0
    endloop
  endfacet
  facet normal 0.146736 0.989176 -0
    outer loop
      vertex 0.362888 -6.4687 0
      vertex -0.268086 -6.3751 2.5
      vertex 0.362888 -6.4687 2.5
    endloop
  endfacet
  facet normal 0.146736 0.989176 0
    outer loop
      vertex -0.268086 -6.3751 2.5
      vertex 0.362888 -6.4687 0
      vertex -0.268086 -6.3751 0
    endloop
  endfacet
  facet normal 0.90399 0.427555 -5.13657e-18
    outer loop
      vertex -4.73249 -3.06408 2.5
      vertex -5.00522 -2.48744 0
      vertex -5.00522 -2.48744 2.5
    endloop
  endfacet
  facet normal 0.90399 0.427555 -5.13657e-18
    outer loop
      vertex -5.00522 -2.48744 0
      vertex -4.73249 -3.06408 2.5
      vertex -4.73249 -3.06408 0
    endloop
  endfacet
  facet normal 0.989176 -0.146735 2.04866e-18
    outer loop
      vertex -5.4687 0.637111 2.5
      vertex -5.3751 1.26809 0
      vertex -5.3751 1.26809 2.5
    endloop
  endfacet
  facet normal 0.989176 -0.146735 2.04866e-18
    outer loop
      vertex -5.3751 1.26809 0
      vertex -5.4687 0.637111 2.5
      vertex -5.4687 0.637111 0
    endloop
  endfacet
  facet normal 0.336884 0.941546 -0
    outer loop
      vertex -0.88685 -6.22011 0
      vertex -1.48744 -6.00522 2.5
      vertex -0.88685 -6.22011 2.5
    endloop
  endfacet
  facet normal 0.336884 0.941546 0
    outer loop
      vertex -1.48744 -6.00522 2.5
      vertex -0.88685 -6.22011 0
      vertex -1.48744 -6.00522 0
    endloop
  endfacet
endsolid OpenSCAD_Model
