solid OpenSCAD_Model
  facet normal 0.772994 -0.634413 0
    outer loop
      vertex 59.1213 -59.1213 1.505
      vertex 59.1213 -59.1213 -1.495
      vertex 59.4944 -58.6667 1.505
    endloop
  endfacet
  facet normal -0.881957 0.471329 -3.20732e-18
    outer loop
      vertex -59.4944 58.6667 1.505
      vertex -59.7716 58.148 -1.495
      vertex -59.7716 58.148 1.505
    endloop
  endfacet
  facet normal -0 -0 1
    outer loop
      vertex -59.4944 -58.6667 1.505
      vertex -57.5853 -59.9424 1.505
      vertex -59.7716 -58.148 1.505
    endloop
  endfacet
  facet normal -1 -0 0
    outer loop
      vertex -60 57 1.505
      vertex -60 -57 -1.495
      vertex -60 -57 1.505
    endloop
  endfacet
  facet normal 0.772994 0.634413 -0
    outer loop
      vertex 59.4944 58.6667 -1.495
      vertex 59.1213 59.1213 1.505
      vertex 59.4944 58.6667 1.505
    endloop
  endfacet
  facet normal -0 0 1
    outer loop
      vertex -60 57 1.505
      vertex -57.5853 -59.9424 1.505
      vertex -59.9424 57.5853 1.505
    endloop
  endfacet
  facet normal 1 0 0
    outer loop
      vertex 60 -57 -1.495
      vertex 60 57 1.505
      vertex 60 -57 1.505
    endloop
  endfacet
  facet normal 0.634413 0.772994 -7.12521e-18
    outer loop
      vertex 58.6667 59.4944 -1.495
      vertex 59.1213 59.1213 1.505
      vertex 59.1213 59.1213 -1.495
    endloop
  endfacet
  facet normal -0 -1 -0
    outer loop
      vertex 57 -60 1.505
      vertex -57 -60 1.505
      vertex 57 -60 -1.495
    endloop
  endfacet
  facet normal -0.097938 0.995193 1.1217e-18
    outer loop
      vertex -57.5853 59.9424 -1.495
      vertex -57 60 1.505
      vertex -57 60 -1.495
    endloop
  endfacet
  facet normal -0 0 1
    outer loop
      vertex -60 -57 1.505
      vertex -57.5853 -59.9424 1.505
      vertex -60 57 1.505
    endloop
  endfacet
  facet normal -0.634413 -0.772994 0
    outer loop
      vertex -59.1213 -59.1213 -1.495
      vertex -58.6667 -59.4944 -1.495
      vertex -59.1213 -59.1213 1.505
    endloop
  endfacet
  facet normal 0.097938 -0.995193 0
    outer loop
      vertex 57 -60 -1.495
      vertex 57.5853 -59.9424 1.505
      vertex 57 -60 1.505
    endloop
  endfacet
  facet normal -0.634413 0.772994 0
    outer loop
      vertex -58.6667 59.4944 -1.495
      vertex -59.1213 59.1213 -1.495
      vertex -58.6667 59.4944 1.505
    endloop
  endfacet
  facet normal 0 0 1
    outer loop
      vertex 59.1213 -59.1213 1.505
      vertex -57.5853 -59.9424 1.505
      vertex 58.6667 -59.4944 1.505
    endloop
  endfacet
  facet normal -1 0 0
    outer loop
      vertex -60 57 -1.495
      vertex -60 -57 -1.495
      vertex -60 57 1.505
    endloop
  endfacet
  facet normal 0.290451 0.95689 -0
    outer loop
      vertex 58.148 59.7716 -1.495
      vertex 57.5853 59.9424 1.505
      vertex 58.148 59.7716 1.505
    endloop
  endfacet
  facet normal -0.097938 0.995193 0
    outer loop
      vertex -57.5853 59.9424 1.505
      vertex -57 60 1.505
      vertex -57.5853 59.9424 -1.495
    endloop
  endfacet
  facet normal -0 -0 -1
    outer loop
      vertex 57 60 -1.495
      vertex 59.1213 -59.1213 -1.495
      vertex -57 60 -1.495
    endloop
  endfacet
  facet normal -0 -0 -1
    outer loop
      vertex 59.1213 59.1213 -1.495
      vertex 59.1213 -59.1213 -1.495
      vertex 58.6667 59.4944 -1.495
    endloop
  endfacet
  facet normal 0 1 -0
    outer loop
      vertex 57 60 -1.495
      vertex -57 60 1.505
      vertex 57 60 1.505
    endloop
  endfacet
  facet normal 0 1 0
    outer loop
      vertex -57 60 -1.495
      vertex -57 60 1.505
      vertex 57 60 -1.495
    endloop
  endfacet
  facet normal 0.772994 0.634413 -0
    outer loop
      vertex 59.1213 59.1213 -1.495
      vertex 59.1213 59.1213 1.505
      vertex 59.4944 58.6667 -1.495
    endloop
  endfacet
  facet normal -0.772994 -0.634413 -7.12521e-18
    outer loop
      vertex -59.1213 -59.1213 -1.495
      vertex -59.4944 -58.6667 1.505
      vertex -59.4944 -58.6667 -1.495
    endloop
  endfacet
  facet normal 0 0 -1
    outer loop
      vertex -59.4944 -58.6667 -1.495
      vertex 59.1213 -59.1213 -1.495
      vertex -59.1213 -59.1213 -1.495
    endloop
  endfacet
  facet normal 0 0 1
    outer loop
      vertex 57.5853 59.9424 1.505
      vertex -57.5853 -59.9424 1.505
      vertex 58.148 59.7716 1.505
    endloop
  endfacet
  facet normal 0 0 1
    outer loop
      vertex 58.148 59.7716 1.505
      vertex -57.5853 -59.9424 1.505
      vertex 58.6667 59.4944 1.505
    endloop
  endfacet
  facet normal 1 0 -0
    outer loop
      vertex 60 57 -1.495
      vertex 60 57 1.505
      vertex 60 -57 -1.495
    endloop
  endfacet
  facet normal 0 0 1
    outer loop
      vertex 59.9424 57.5853 1.505
      vertex -57.5853 -59.9424 1.505
      vertex 60 57 1.505
    endloop
  endfacet
  facet normal -0 0 1
    outer loop
      vertex -59.9424 57.5853 1.505
      vertex -57.5853 -59.9424 1.505
      vertex -59.7716 58.148 1.505
    endloop
  endfacet
  facet normal 0.95689 0.290451 -2.58736e-18
    outer loop
      vertex 59.7716 58.148 -1.495
      vertex 59.9424 57.5853 1.505
      vertex 59.9424 57.5853 -1.495
    endloop
  endfacet
  facet normal -0.471329 -0.881957 -0
    outer loop
      vertex -58.148 -59.7716 1.505
      vertex -58.6667 -59.4944 -1.495
      vertex -58.148 -59.7716 -1.495
    endloop
  endfacet
  facet normal 0.471329 0.881957 -0
    outer loop
      vertex 58.6667 59.4944 -1.495
      vertex 58.148 59.7716 1.505
      vertex 58.6667 59.4944 1.505
    endloop
  endfacet
  facet normal 0 0 -1
    outer loop
      vertex -58.6667 -59.4944 -1.495
      vertex 59.1213 -59.1213 -1.495
      vertex -58.148 -59.7716 -1.495
    endloop
  endfacet
  facet normal -0.290451 -0.95689 0
    outer loop
      vertex -58.148 -59.7716 -1.495
      vertex -57.5853 -59.9424 1.505
      vertex -58.148 -59.7716 1.505
    endloop
  endfacet
  facet normal 0 -1 0
    outer loop
      vertex 57 -60 -1.495
      vertex -57 -60 1.505
      vertex -57 -60 -1.495
    endloop
  endfacet
  facet normal 0 0 1
    outer loop
      vertex 59.7716 58.148 1.505
      vertex -57.5853 -59.9424 1.505
      vertex 59.9424 57.5853 1.505
    endloop
  endfacet
  facet normal -0.95689 -0.290451 -0
    outer loop
      vertex -59.9424 -57.5853 1.505
      vertex -59.9424 -57.5853 -1.495
      vertex -59.7716 -58.148 1.505
    endloop
  endfacet
  facet normal 0.995193 0.097938 -0
    outer loop
      vertex 60 57 -1.495
      vertex 59.9424 57.5853 1.505
      vertex 60 57 1.505
    endloop
  endfacet
  facet normal 0 0 1
    outer loop
      vertex 58.148 -59.7716 1.505
      vertex -57.5853 -59.9424 1.505
      vertex 57.5853 -59.9424 1.505
    endloop
  endfacet
  facet normal 0.634413 0.772994 0
    outer loop
      vertex 58.6667 59.4944 1.505
      vertex 59.1213 59.1213 1.505
      vertex 58.6667 59.4944 -1.495
    endloop
  endfacet
  facet normal -0.881957 0.471329 0
    outer loop
      vertex -59.4944 58.6667 -1.495
      vertex -59.7716 58.148 -1.495
      vertex -59.4944 58.6667 1.505
    endloop
  endfacet
  facet normal 0.995193 0.097938 -0
    outer loop
      vertex 59.9424 57.5853 -1.495
      vertex 59.9424 57.5853 1.505
      vertex 60 57 -1.495
    endloop
  endfacet
  facet normal 0 0 -1
    outer loop
      vertex -59.9424 -57.5853 -1.495
      vertex 59.1213 -59.1213 -1.495
      vertex -59.7716 -58.148 -1.495
    endloop
  endfacet
  facet normal 0.097938 0.995193 -1.1217e-18
    outer loop
      vertex 57 60 -1.495
      vertex 57.5853 59.9424 1.505
      vertex 57.5853 59.9424 -1.495
    endloop
  endfacet
  facet normal -0.290451 0.95689 0
    outer loop
      vertex -58.148 59.7716 -1.495
      vertex -58.148 59.7716 1.505
      vertex -57.5853 59.9424 -1.495
    endloop
  endfacet
  facet normal 0.881957 -0.471329 0
    outer loop
      vertex 59.7716 -58.148 1.505
      vertex 59.4944 -58.6667 -1.495
      vertex 59.7716 -58.148 -1.495
    endloop
  endfacet
  facet normal -0.471329 -0.881957 -0
    outer loop
      vertex -58.6667 -59.4944 1.505
      vertex -58.6667 -59.4944 -1.495
      vertex -58.148 -59.7716 1.505
    endloop
  endfacet
  facet normal -0 0 1
    outer loop
      vertex -59.7716 58.148 1.505
      vertex -57.5853 -59.9424 1.505
      vertex -59.4944 58.6667 1.505
    endloop
  endfacet
  facet normal -0.471329 0.881957 0
    outer loop
      vertex -58.148 59.7716 -1.495
      vertex -58.6667 59.4944 -1.495
      vertex -58.148 59.7716 1.505
    endloop
  endfacet
  facet normal -0.290451 0.95689 0
    outer loop
      vertex -57.5853 59.9424 -1.495
      vertex -58.148 59.7716 1.505
      vertex -57.5853 59.9424 1.505
    endloop
  endfacet
  facet normal 0.471329 -0.881957 0
    outer loop
      vertex 58.6667 -59.4944 1.505
      vertex 58.148 -59.7716 -1.495
      vertex 58.6667 -59.4944 -1.495
    endloop
  endfacet
  facet normal 0.881957 -0.471329 0
    outer loop
      vertex 59.4944 -58.6667 1.505
      vertex 59.4944 -58.6667 -1.495
      vertex 59.7716 -58.148 1.505
    endloop
  endfacet
  facet normal -0 -0 1
    outer loop
      vertex -58.6667 -59.4944 1.505
      vertex -57.5853 -59.9424 1.505
      vertex -59.1213 -59.1213 1.505
    endloop
  endfacet
  facet normal -0.471329 0.881957 -3.20732e-18
    outer loop
      vertex -58.148 59.7716 1.505
      vertex -58.6667 59.4944 -1.495
      vertex -58.6667 59.4944 1.505
    endloop
  endfacet
  facet normal 0.881957 0.471329 -0
    outer loop
      vertex 59.7716 58.148 -1.495
      vertex 59.4944 58.6667 -1.495
      vertex 59.7716 58.148 1.505
    endloop
  endfacet
  facet normal 0 0 -1
    outer loop
      vertex -57.5853 -59.9424 -1.495
      vertex 59.1213 -59.1213 -1.495
      vertex -57 -60 -1.495
    endloop
  endfacet
  facet normal -0.290451 -0.95689 0
    outer loop
      vertex -57.5853 -59.9424 -1.495
      vertex -57.5853 -59.9424 1.505
      vertex -58.148 -59.7716 -1.495
    endloop
  endfacet
  facet normal 0.471329 -0.881957 0
    outer loop
      vertex 58.148 -59.7716 1.505
      vertex 58.148 -59.7716 -1.495
      vertex 58.6667 -59.4944 1.505
    endloop
  endfacet
  facet normal -0.995193 0.097938 1.1217e-18
    outer loop
      vertex -60 57 -1.495
      vertex -59.9424 57.5853 1.505
      vertex -59.9424 57.5853 -1.495
    endloop
  endfacet
  facet normal 0.471329 0.881957 -0
    outer loop
      vertex 58.148 59.7716 -1.495
      vertex 58.148 59.7716 1.505
      vertex 58.6667 59.4944 -1.495
    endloop
  endfacet
  facet normal -0.881957 -0.471329 0
    outer loop
      vertex -59.7716 -58.148 -1.495
      vertex -59.4944 -58.6667 1.505
      vertex -59.7716 -58.148 1.505
    endloop
  endfacet
  facet normal 0.881957 0.471329 3.20732e-18
    outer loop
      vertex 59.7716 58.148 1.505
      vertex 59.4944 58.6667 -1.495
      vertex 59.4944 58.6667 1.505
    endloop
  endfacet
  facet normal 0 -0 -1
    outer loop
      vertex -59.4944 58.6667 -1.495
      vertex 59.1213 -59.1213 -1.495
      vertex -59.7716 58.148 -1.495
    endloop
  endfacet
  facet normal -0 0 -1
    outer loop
      vertex 59.4944 -58.6667 -1.495
      vertex 59.1213 -59.1213 -1.495
      vertex 59.7716 -58.148 -1.495
    endloop
  endfacet
  facet normal 0.634413 -0.772994 7.12521e-18
    outer loop
      vertex 58.6667 -59.4944 1.505
      vertex 59.1213 -59.1213 -1.495
      vertex 59.1213 -59.1213 1.505
    endloop
  endfacet
  facet normal 0 -0 -1
    outer loop
      vertex -59.1213 59.1213 -1.495
      vertex 59.1213 -59.1213 -1.495
      vertex -59.4944 58.6667 -1.495
    endloop
  endfacet
  facet normal 0.95689 0.290451 0
    outer loop
      vertex 59.7716 58.148 1.505
      vertex 59.9424 57.5853 1.505
      vertex 59.7716 58.148 -1.495
    endloop
  endfacet
  facet normal -0.772994 0.634413 0
    outer loop
      vertex -59.1213 59.1213 1.505
      vertex -59.1213 59.1213 -1.495
      vertex -59.4944 58.6667 1.505
    endloop
  endfacet
  facet normal -0 -0 1
    outer loop
      vertex -59.9424 -57.5853 1.505
      vertex -57.5853 -59.9424 1.505
      vertex -60 -57 1.505
    endloop
  endfacet
  facet normal 0 0 1
    outer loop
      vertex 57.5853 -59.9424 1.505
      vertex -57.5853 -59.9424 1.505
      vertex 57 -60 1.505
    endloop
  endfacet
  facet normal 0 0 1
    outer loop
      vertex 60 57 1.505
      vertex -57.5853 -59.9424 1.505
      vertex 60 -57 1.505
    endloop
  endfacet
  facet normal -0.995193 -0.097938 0
    outer loop
      vertex -60 -57 -1.495
      vertex -59.9424 -57.5853 -1.495
      vertex -60 -57 1.505
    endloop
  endfacet
  facet normal 0 -0 -1
    outer loop
      vertex -58.6667 59.4944 -1.495
      vertex 59.1213 -59.1213 -1.495
      vertex -59.1213 59.1213 -1.495
    endloop
  endfacet
  facet normal 0.772994 -0.634413 0
    outer loop
      vertex 59.4944 -58.6667 1.505
      vertex 59.1213 -59.1213 -1.495
      vertex 59.4944 -58.6667 -1.495
    endloop
  endfacet
  facet normal -0.995193 0.097938 0
    outer loop
      vertex -60 57 1.505
      vertex -59.9424 57.5853 1.505
      vertex -60 57 -1.495
    endloop
  endfacet
  facet normal -0.634413 0.772994 7.12521e-18
    outer loop
      vertex -58.6667 59.4944 1.505
      vertex -59.1213 59.1213 -1.495
      vertex -59.1213 59.1213 1.505
    endloop
  endfacet
  facet normal -0.772994 0.634413 0
    outer loop
      vertex -59.4944 58.6667 1.505
      vertex -59.1213 59.1213 -1.495
      vertex -59.4944 58.6667 -1.495
    endloop
  endfacet
  facet normal -0.95689 0.290451 0
    outer loop
      vertex -59.7716 58.148 1.505
      vertex -59.7716 58.148 -1.495
      vertex -59.9424 57.5853 1.505
    endloop
  endfacet
  facet normal -0 0 -1
    outer loop
      vertex 60 57 -1.495
      vertex 59.1213 -59.1213 -1.495
      vertex 59.9424 57.5853 -1.495
    endloop
  endfacet
  facet normal -0 0 1
    outer loop
      vertex -58.6667 59.4944 1.505
      vertex -57.5853 -59.9424 1.505
      vertex -58.148 59.7716 1.505
    endloop
  endfacet
  facet normal -0 0 1
    outer loop
      vertex -58.148 59.7716 1.505
      vertex -57.5853 -59.9424 1.505
      vertex -57.5853 59.9424 1.505
    endloop
  endfacet
  facet normal 0 0 1
    outer loop
      vertex 59.7716 -58.148 1.505
      vertex -57.5853 -59.9424 1.505
      vertex 59.4944 -58.6667 1.505
    endloop
  endfacet
  facet normal -0 -0 1
    outer loop
      vertex -59.7716 -58.148 1.505
      vertex -57.5853 -59.9424 1.505
      vertex -59.9424 -57.5853 1.505
    endloop
  endfacet
  facet normal -0 -0 1
    outer loop
      vertex -58.148 -59.7716 1.505
      vertex -57.5853 -59.9424 1.505
      vertex -58.6667 -59.4944 1.505
    endloop
  endfacet
  facet normal -0.097938 -0.995193 -0
    outer loop
      vertex -57 -60 1.505
      vertex -57.5853 -59.9424 1.505
      vertex -57 -60 -1.495
    endloop
  endfacet
  facet normal 0.097938 0.995193 0
    outer loop
      vertex 57 60 1.505
      vertex 57.5853 59.9424 1.505
      vertex 57 60 -1.495
    endloop
  endfacet
  facet normal 0.290451 0.95689 -0
    outer loop
      vertex 57.5853 59.9424 -1.495
      vertex 57.5853 59.9424 1.505
      vertex 58.148 59.7716 -1.495
    endloop
  endfacet
  facet normal 0 0 1
    outer loop
      vertex 57 60 1.505
      vertex -57.5853 -59.9424 1.505
      vertex 57.5853 59.9424 1.505
    endloop
  endfacet
  facet normal 0.95689 -0.290451 0
    outer loop
      vertex 59.7716 -58.148 -1.495
      vertex 59.9424 -57.5853 -1.495
      vertex 59.7716 -58.148 1.505
    endloop
  endfacet
  facet normal -0 0 -1
    outer loop
      vertex 59.7716 58.148 -1.495
      vertex 59.1213 -59.1213 -1.495
      vertex 59.4944 58.6667 -1.495
    endloop
  endfacet
  facet normal -0.95689 -0.290451 -0
    outer loop
      vertex -59.7716 -58.148 1.505
      vertex -59.9424 -57.5853 -1.495
      vertex -59.7716 -58.148 -1.495
    endloop
  endfacet
  facet normal 0 0 1
    outer loop
      vertex 59.1213 59.1213 1.505
      vertex -57.5853 -59.9424 1.505
      vertex 59.4944 58.6667 1.505
    endloop
  endfacet
  facet normal 0 0 1
    outer loop
      vertex 59.4944 58.6667 1.505
      vertex -57.5853 -59.9424 1.505
      vertex 59.7716 58.148 1.505
    endloop
  endfacet
  facet normal 0 0 -1
    outer loop
      vertex 57.5853 -59.9424 -1.495
      vertex 59.1213 -59.1213 -1.495
      vertex 58.148 -59.7716 -1.495
    endloop
  endfacet
  facet normal 0.097938 -0.995193 0
    outer loop
      vertex 57.5853 -59.9424 -1.495
      vertex 57.5853 -59.9424 1.505
      vertex 57 -60 -1.495
    endloop
  endfacet
  facet normal 0 0 1
    outer loop
      vertex 58.6667 59.4944 1.505
      vertex -57.5853 -59.9424 1.505
      vertex 59.1213 59.1213 1.505
    endloop
  endfacet
  facet normal -0.097938 -0.995193 -1.1217e-18
    outer loop
      vertex -57 -60 -1.495
      vertex -57.5853 -59.9424 1.505
      vertex -57.5853 -59.9424 -1.495
    endloop
  endfacet
  facet normal -0.995193 -0.097938 -1.1217e-18
    outer loop
      vertex -60 -57 1.505
      vertex -59.9424 -57.5853 -1.495
      vertex -59.9424 -57.5853 1.505
    endloop
  endfacet
  facet normal 0 -0 -1
    outer loop
      vertex -57.5853 59.9424 -1.495
      vertex 59.1213 -59.1213 -1.495
      vertex -58.148 59.7716 -1.495
    endloop
  endfacet
  facet normal 0 -0 -1
    outer loop
      vertex -58.148 59.7716 -1.495
      vertex 59.1213 -59.1213 -1.495
      vertex -58.6667 59.4944 -1.495
    endloop
  endfacet
  facet normal -0 -0 1
    outer loop
      vertex -59.1213 -59.1213 1.505
      vertex -57.5853 -59.9424 1.505
      vertex -59.4944 -58.6667 1.505
    endloop
  endfacet
  facet normal 0.634413 -0.772994 0
    outer loop
      vertex 58.6667 -59.4944 -1.495
      vertex 59.1213 -59.1213 -1.495
      vertex 58.6667 -59.4944 1.505
    endloop
  endfacet
  facet normal 0 -0 -1
    outer loop
      vertex -57 60 -1.495
      vertex 59.1213 -59.1213 -1.495
      vertex -57.5853 59.9424 -1.495
    endloop
  endfacet
  facet normal 0.995193 -0.097938 0
    outer loop
      vertex 59.9424 -57.5853 1.505
      vertex 59.9424 -57.5853 -1.495
      vertex 60 -57 1.505
    endloop
  endfacet
  facet normal 0.95689 -0.290451 2.58736e-18
    outer loop
      vertex 59.7716 -58.148 1.505
      vertex 59.9424 -57.5853 -1.495
      vertex 59.9424 -57.5853 1.505
    endloop
  endfacet
  facet normal 0 0 -1
    outer loop
      vertex -59.1213 -59.1213 -1.495
      vertex 59.1213 -59.1213 -1.495
      vertex -58.6667 -59.4944 -1.495
    endloop
  endfacet
  facet normal 0 0 1
    outer loop
      vertex 57 -60 1.505
      vertex -57.5853 -59.9424 1.505
      vertex -57 -60 1.505
    endloop
  endfacet
  facet normal 0.290451 -0.95689 2.58736e-18
    outer loop
      vertex 57.5853 -59.9424 1.505
      vertex 58.148 -59.7716 -1.495
      vertex 58.148 -59.7716 1.505
    endloop
  endfacet
  facet normal 0.290451 -0.95689 0
    outer loop
      vertex 57.5853 -59.9424 -1.495
      vertex 58.148 -59.7716 -1.495
      vertex 57.5853 -59.9424 1.505
    endloop
  endfacet
  facet normal 0 0 1
    outer loop
      vertex 59.4944 -58.6667 1.505
      vertex -57.5853 -59.9424 1.505
      vertex 59.1213 -59.1213 1.505
    endloop
  endfacet
  facet normal 0 0 1
    outer loop
      vertex 58.6667 -59.4944 1.505
      vertex -57.5853 -59.9424 1.505
      vertex 58.148 -59.7716 1.505
    endloop
  endfacet
  facet normal -0 0 -1
    outer loop
      vertex 59.9424 -57.5853 -1.495
      vertex 59.1213 -59.1213 -1.495
      vertex 60 -57 -1.495
    endloop
  endfacet
  facet normal -0 -0 -1
    outer loop
      vertex 58.148 59.7716 -1.495
      vertex 59.1213 -59.1213 -1.495
      vertex 57.5853 59.9424 -1.495
    endloop
  endfacet
  facet normal -0.772994 -0.634413 -0
    outer loop
      vertex -59.1213 -59.1213 1.505
      vertex -59.4944 -58.6667 1.505
      vertex -59.1213 -59.1213 -1.495
    endloop
  endfacet
  facet normal -0.881957 -0.471329 0
    outer loop
      vertex -59.4944 -58.6667 -1.495
      vertex -59.4944 -58.6667 1.505
      vertex -59.7716 -58.148 -1.495
    endloop
  endfacet
  facet normal -0 0 1
    outer loop
      vertex -57.5853 59.9424 1.505
      vertex -57.5853 -59.9424 1.505
      vertex -57 60 1.505
    endloop
  endfacet
  facet normal -0 0 1
    outer loop
      vertex -57 60 1.505
      vertex -57.5853 -59.9424 1.505
      vertex 57 60 1.505
    endloop
  endfacet
  facet normal -0 0 -1
    outer loop
      vertex 59.9424 57.5853 -1.495
      vertex 59.1213 -59.1213 -1.495
      vertex 59.7716 58.148 -1.495
    endloop
  endfacet
  facet normal -0 -0 -1
    outer loop
      vertex 58.6667 59.4944 -1.495
      vertex 59.1213 -59.1213 -1.495
      vertex 58.148 59.7716 -1.495
    endloop
  endfacet
  facet normal -0 0 -1
    outer loop
      vertex 59.7716 -58.148 -1.495
      vertex 59.1213 -59.1213 -1.495
      vertex 59.9424 -57.5853 -1.495
    endloop
  endfacet
  facet normal -0.95689 0.290451 0
    outer loop
      vertex -59.9424 57.5853 1.505
      vertex -59.7716 58.148 -1.495
      vertex -59.9424 57.5853 -1.495
    endloop
  endfacet
  facet normal -0 -0 -1
    outer loop
      vertex 57.5853 59.9424 -1.495
      vertex 59.1213 -59.1213 -1.495
      vertex 57 60 -1.495
    endloop
  endfacet
  facet normal 0.995193 -0.097938 0
    outer loop
      vertex 60 -57 1.505
      vertex 59.9424 -57.5853 -1.495
      vertex 60 -57 -1.495
    endloop
  endfacet
  facet normal -0 0 -1
    outer loop
      vertex 59.4944 58.6667 -1.495
      vertex 59.1213 -59.1213 -1.495
      vertex 59.1213 59.1213 -1.495
    endloop
  endfacet
  facet normal -0 0 -1
    outer loop
      vertex 60 -57 -1.495
      vertex 59.1213 -59.1213 -1.495
      vertex 60 57 -1.495
    endloop
  endfacet
  facet normal 0 0 -1
    outer loop
      vertex 58.148 -59.7716 -1.495
      vertex 59.1213 -59.1213 -1.495
      vertex 58.6667 -59.4944 -1.495
    endloop
  endfacet
  facet normal -0.634413 -0.772994 -7.12521e-18
    outer loop
      vertex -59.1213 -59.1213 1.505
      vertex -58.6667 -59.4944 -1.495
      vertex -58.6667 -59.4944 1.505
    endloop
  endfacet
  facet normal 0 -0 -1
    outer loop
      vertex -59.9424 57.5853 -1.495
      vertex 59.1213 -59.1213 -1.495
      vertex -60 57 -1.495
    endloop
  endfacet
  facet normal 0 0 -1
    outer loop
      vertex -60 -57 -1.495
      vertex 59.1213 -59.1213 -1.495
      vertex -59.9424 -57.5853 -1.495
    endloop
  endfacet
  facet normal 0 0 -1
    outer loop
      vertex -59.7716 -58.148 -1.495
      vertex 59.1213 -59.1213 -1.495
      vertex -59.4944 -58.6667 -1.495
    endloop
  endfacet
  facet normal 0 0 -1
    outer loop
      vertex -58.148 -59.7716 -1.495
      vertex 59.1213 -59.1213 -1.495
      vertex -57.5853 -59.9424 -1.495
    endloop
  endfacet
  facet normal 0 0 -1
    outer loop
      vertex -60 57 -1.495
      vertex 59.1213 -59.1213 -1.495
      vertex -60 -57 -1.495
    endloop
  endfacet
  facet normal 0 -0 -1
    outer loop
      vertex -59.7716 58.148 -1.495
      vertex 59.1213 -59.1213 -1.495
      vertex -59.9424 57.5853 -1.495
    endloop
  endfacet
  facet normal 0 0 -1
    outer loop
      vertex 57 -60 -1.495
      vertex 59.1213 -59.1213 -1.495
      vertex 57.5853 -59.9424 -1.495
    endloop
  endfacet
  facet normal 0 0 -1
    outer loop
      vertex -57 -60 -1.495
      vertex 59.1213 -59.1213 -1.495
      vertex 57 -60 -1.495
    endloop
  endfacet
  facet normal -0 0 1
    outer loop
      vertex -59.1213 59.1213 1.505
      vertex -57.5853 -59.9424 1.505
      vertex -58.6667 59.4944 1.505
    endloop
  endfacet
  facet normal -0 0 1
    outer loop
      vertex -59.4944 58.6667 1.505
      vertex -57.5853 -59.9424 1.505
      vertex -59.1213 59.1213 1.505
    endloop
  endfacet
  facet normal 0 0 1
    outer loop
      vertex 59.9424 -57.5853 1.505
      vertex -57.5853 -59.9424 1.505
      vertex 59.7716 -58.148 1.505
    endloop
  endfacet
  facet normal 0 0 1
    outer loop
      vertex 60 -57 1.505
      vertex -57.5853 -59.9424 1.505
      vertex 59.9424 -57.5853 1.505
    endloop
  endfacet
endsolid OpenSCAD_Model
